<svg width="140" height="56" viewBox="0 0 140 56" fill="none" xmlns="http://www.w3.org/2000/svg">
<path d="M55.4198 33.9725V20.7023C55.6663 20.6124 55.9187 20.5656 56.1648 20.5656C57.204 20.5656 58.0196 21.2494 58.0196 22.5966V24.0051H61.6287V26.1599H58.0196V33.6811C58.0196 34.837 58.676 35.7165 60.1108 35.7165C61.0696 35.7165 61.7762 35.5083 61.9936 35.4438V37.6193C61.7467 37.6973 60.7101 37.9976 59.5379 37.9976C57.0852 37.9976 55.4198 36.6048 55.4198 33.9725Z" fill="white"/>
<path d="M107.702 25.7489V25.806C108.748 24.6861 110.112 23.7177 111.967 23.7177C114.705 23.7177 115.592 25.0853 115.985 26.0081C117.156 24.7502 118.604 23.7177 120.56 23.7177C123.773 23.7177 124.96 25.647 124.96 28.2289V37.7104H122.361V28.3724C122.361 26.9644 121.603 25.9968 120.085 25.9968C118.713 25.9968 117.271 27.0371 116.375 28.2287V37.7104H113.776V28.3724C113.776 26.9644 113.019 25.9968 111.501 25.9968C110.128 25.9968 108.564 27.1991 107.791 28.2287V37.7104H105.192V23.8546C105.439 23.7647 105.691 23.7179 105.937 23.7179C106.976 23.7179 107.702 24.4017 107.702 25.7489Z" fill="white"/>
<path d="M96.8139 23.7179C97.8529 23.7179 98.6229 24.4017 98.6229 25.7489V26.6306C99.5802 24.8902 100.991 23.7177 103.456 23.7177V26.3005C101.15 26.3005 99.4048 27.8877 98.6673 29.608V37.7104H96.0687V23.8546C96.3152 23.7647 96.5678 23.7179 96.8139 23.7179Z" fill="white"/>
<path d="M14.1192 23.7179C15.1584 23.7179 15.9284 24.4017 15.9284 25.7489V26.6306C16.8855 24.8902 18.2968 23.7177 20.7616 23.7177V26.3005C18.4553 26.3005 16.7102 27.8877 15.9728 29.608V37.7104H13.3742V23.8546C13.6207 23.7647 13.8731 23.7179 14.1192 23.7179Z" fill="white"/>
<path d="M80.4776 23.9005C79.4137 26.6238 77.9202 28.8549 76.234 30.717L80.5032 37.7102L80.5014 37.7112C80.3537 37.7894 79.961 37.9972 79.2988 37.9972C78.1169 37.9972 77.328 37.4851 76.7353 36.5029L74.3629 32.5543C73.3928 33.433 72.4915 34.1476 71.4902 34.8491V37.7102H68.8916V18.3237H71.4902V31.8584C74.2554 29.6553 76.5443 26.9962 78.0761 23.0366L80.4776 23.9005Z" fill="white"/>
<path d="M6.96295 25.9972C4.40616 25.9972 2.71757 27.654 2.71757 30.8434C2.71757 34.064 4.54817 35.7167 7.00108 35.7167C8.72134 35.7167 10.556 34.8683 11.1252 34.4844V37.0252C10.6034 37.2908 8.81656 37.9978 6.57202 37.9978C2.83456 37.9978 0 35.4406 0 30.8722C0 26.1887 3.12 23.7179 6.85887 23.7179C10.0654 23.7179 11.1547 24.7014 11.1547 25.6087C11.1547 26.1512 10.8997 26.6705 10.5812 26.9682C10.1757 26.7124 8.90208 25.9972 6.96295 25.9972Z" fill="white"/>
<path fill-rule="evenodd" clip-rule="evenodd" d="M46.1924 37.3721C46.2941 37.3438 46.3791 37.3202 46.4467 37.3031V18.3237H43.8784V24.436C43.5482 24.2683 42.3314 23.7133 40.5192 23.7133C37.2469 23.7133 34.3575 26.1014 34.3575 31.1009C34.3575 35.0561 36.4265 38 41.7876 38C43.9347 38 45.4771 37.5711 46.1924 37.3721ZM40.988 25.9972C42.4267 25.9972 43.5609 26.5756 43.8784 26.7634V35.4202C43.2743 35.5984 42.5503 35.7141 41.7876 35.7141C38.4796 35.7141 36.9391 34.0448 36.9391 31.0278C36.9391 27.6375 38.5863 25.9972 40.988 25.9972Z" fill="white"/>
<path fill-rule="evenodd" clip-rule="evenodd" d="M32.6033 27.3801C32.6033 31.3996 27.4845 31.9753 23.6167 31.9753C23.9165 33.8354 25.1365 35.7167 28.089 35.7167C30.1595 35.7167 31.5099 34.8333 31.7819 34.6554L31.7916 34.649C31.8872 34.7419 32.3179 35.2661 32.3179 35.9231C32.3179 37.3259 30.4429 37.9978 27.9331 37.9978C23.4235 37.9978 20.8957 34.9259 20.8957 31.0723C20.8957 27.0532 23.2179 23.7175 28.0424 23.7175C30.9006 23.7175 32.6033 25.3705 32.6033 27.3801ZM27.9133 25.9089C25.036 25.9089 23.7109 27.975 23.599 29.9915C26.3438 29.9915 29.9715 29.4585 29.9715 27.5044C29.9715 26.6304 29.1983 25.9089 27.9133 25.9089Z" fill="white"/>
<path d="M49.6194 24.0051V37.7102H52.2181V24.0051H49.6194Z" fill="white"/>
<path d="M49.2688 19.6378C49.2688 20.5284 50.028 21.2468 50.9332 21.2468C51.8385 21.2468 52.5683 20.5284 52.5683 19.6378C52.5683 18.7469 51.8385 18 50.9332 18C50.028 18 49.2688 18.7469 49.2688 19.6378Z" fill="white"/>
<path fill-rule="evenodd" clip-rule="evenodd" d="M128.231 25.6069C128.231 24.5968 129.526 23.7177 132.847 23.7177C136.234 23.7177 138.47 25.2941 138.47 28.3398V37.7104H135.933V36.1413L135.919 36.1533C135.279 36.7265 133.86 37.9978 131.363 37.9978C128.852 37.9978 127.081 36.2324 127.081 33.905C127.081 30.4858 130.06 29.4067 135.87 28.8033V28.424C135.87 27.1614 134.985 25.9922 132.475 25.9922C130.481 25.9922 129.243 26.6868 128.806 26.9633C128.687 26.8479 128.231 26.3739 128.231 25.6069ZM132 35.7195C133.519 35.7195 134.702 35.1246 135.87 33.9463V30.7571C130.894 31.2299 129.753 32.4129 129.753 33.8209C129.753 34.7935 130.527 35.7195 132 35.7195Z" fill="white"/>
<path fill-rule="evenodd" clip-rule="evenodd" d="M82.63 25.6069C82.63 24.5968 83.9248 23.7177 87.2453 23.7177C90.6326 23.7177 92.8682 25.2941 92.8682 28.3398V37.7104H90.3314V36.1413L90.3182 36.1532C89.6781 36.7263 88.2583 37.9978 85.7619 37.9978C83.2506 37.9978 81.48 36.2324 81.48 33.905C81.48 30.4858 84.4585 29.4067 90.2691 28.8033V28.424C90.2691 27.1614 89.3833 25.9922 86.8739 25.9922C84.8795 25.9922 83.6414 26.6868 83.2051 26.9633C83.085 26.8479 82.63 26.3739 82.63 25.6069ZM86.3987 35.7195C87.917 35.7195 89.1009 35.1246 90.2691 33.9463V30.7571C85.2926 31.2299 84.1521 32.4129 84.1521 33.8209C84.1521 34.7935 84.9253 35.7195 86.3987 35.7195Z" fill="white"/>
<path d="M139.539 21.4266C139.625 21.8659 139.673 22.3891 139.673 22.8143H140C140 22.2816 139.934 21.6416 139.801 21.1136H139.502C139.321 21.3192 139.131 21.6648 139.017 21.9781C138.903 21.6648 138.713 21.3238 138.533 21.1136H138.239C138.101 21.6416 138.035 22.277 138.035 22.8143H138.367C138.367 22.3844 138.41 21.8611 138.5 21.4266C138.709 21.7256 138.856 22.1041 138.918 22.4499H139.117C139.183 22.1041 139.331 21.7303 139.539 21.4266Z" fill="white"/>
<path d="M137.93 21.1136H136.648V21.3752H137.123V22.8143H137.455V21.3752H137.93V21.1136Z" fill="white"/>
</svg>
