<svg width="449" height="433" viewBox="0 0 449 433" fill="none" xmlns="http://www.w3.org/2000/svg">
<path d="M2.69359 61.7845C1.20603 54.7861 5.67346 47.9069 12.6719 46.4193L216.476 3.09947C223.474 1.61191 230.353 6.07934 231.841 13.0778L303.667 350.991C305.154 357.989 300.687 364.869 293.688 366.356L89.8845 409.676C82.886 411.164 76.0068 406.696 74.5192 399.698L2.69359 61.7845Z" fill="#6EEB9D"/>
<path d="M12.7758 46.9084L216.58 3.58855C223.308 2.1584 229.922 6.45341 231.352 13.1817L303.178 351.095C304.608 357.823 300.313 364.437 293.584 365.867L89.7805 409.187C83.0522 410.617 76.4385 406.322 75.0083 399.594L3.18266 61.6806C1.75251 54.9523 6.04752 48.3385 12.7758 46.9084Z" stroke="white" stroke-opacity="0.35"/>
<path fill-rule="evenodd" clip-rule="evenodd" d="M2.69358 61.7845C1.32999 55.3693 5.89791 48.9629 12.8963 47.4753L216.7 4.15545C223.699 2.66789 230.477 6.66254 231.841 13.0778C230.353 6.07934 223.474 1.61191 216.476 3.09947L12.6719 46.4193C5.67346 47.9069 1.20603 54.7861 2.69358 61.7845Z" fill="#6EEB9D"/>
<path d="M122.126 62.8868C121.506 59.9708 123.368 57.1045 126.284 56.4847L151.627 51.0977C154.543 50.4779 157.41 52.3393 158.03 55.2554L166.11 93.2706C166.73 96.1866 164.868 99.0529 161.952 99.6728L136.609 105.06C133.693 105.679 130.826 103.818 130.207 100.902L122.126 62.8868Z" fill="url(#paint0_linear_2101_23710)"/>
<path d="M61.0519 336.339L290.199 287.632L303.667 350.991C305.154 357.989 300.687 364.868 293.688 366.356L89.8845 409.676C82.886 411.163 76.0068 406.696 74.5193 399.698L61.0519 336.339Z" fill="#FBFBFB"/>
<path d="M83.0594 302.629L81.7069 302.917L80.4761 306.268L77.9936 303.706L76.6215 303.998L80.1184 307.439L80.8732 310.99L82.0339 310.743L81.2739 307.167L83.0594 302.629Z" fill="#1E1D1D"/>
<path d="M88.6254 309.445C90.8288 308.976 92.1934 306.908 91.7313 304.734C91.2692 302.56 89.1813 301.225 86.9779 301.694C84.7697 302.163 83.4051 304.232 83.8671 306.405C84.3292 308.579 86.4172 309.914 88.6254 309.445ZM88.3902 308.338C86.841 308.667 85.3582 307.713 85.0278 306.159C84.6975 304.605 85.6639 303.13 87.2131 302.8C88.7623 302.471 90.2403 303.426 90.5706 304.981C90.901 306.535 89.9395 308.009 88.3902 308.338Z" fill="#1E1D1D"/>
<path d="M96.9126 307.683C98.6192 307.32 99.6709 306.053 99.3207 304.406L98.2565 299.399L97.0958 299.646L98.1151 304.441C98.39 305.735 97.7266 306.41 96.6889 306.631C95.656 306.85 94.7801 306.502 94.5051 305.208L93.4859 300.413L92.3252 300.66L93.3894 305.667C93.7396 307.314 95.2158 308.044 96.9126 307.683Z" fill="#1E1D1D"/>
<path d="M106.251 305.595L107.51 305.328L104.792 302.359C105.562 301.897 105.983 301.021 105.781 300.072C105.526 298.872 104.424 298.088 103.062 298.378L100.17 298.992L101.775 306.547L102.936 306.3L102.241 303.029L103.731 302.713L106.251 305.595ZM101.548 299.769L103.186 299.421C103.913 299.266 104.499 299.625 104.645 300.313C104.796 301.021 104.395 301.533 103.667 301.688L102.03 302.036L101.548 299.769Z" fill="#1E1D1D"/>
<path d="M115.824 295.665L117.043 301.4L111.088 296.672L110.114 296.879L111.72 304.433L112.846 304.194L111.624 298.444L117.577 303.188L118.561 302.979L116.955 295.425L115.824 295.665Z" fill="#1E1D1D"/>
<path d="M125.874 301.424L127.074 301.169L122.474 294.252L121.229 294.516L119.84 302.707L121.045 302.451L121.322 300.685L124.903 299.924L125.874 301.424ZM121.498 299.579L122.117 295.623L124.297 298.984L121.498 299.579Z" fill="#1E1D1D"/>
<path d="M133.102 291.993L131.86 298.147L128.233 293.027L126.757 293.341L128.363 300.895L129.524 300.649L128.299 294.885L131.983 300.126L132.553 300.005L133.798 293.721L135.022 299.48L136.183 299.233L134.577 291.679L133.102 291.993Z" fill="#1E1D1D"/>
<path d="M141.199 291.371L140.976 290.319L136.643 291.24L138.249 298.794L142.581 297.873L142.358 296.821L139.186 297.495L138.719 295.301L141.498 294.711L141.275 293.663L138.497 294.254L138.027 292.046L141.199 291.371Z" fill="#1E1D1D"/>
<path d="M86.2988 280.102L84.2498 270.463L83.2591 270.673L81.3862 273.194L81.673 274.543L83.3795 272.241L85.1044 280.356L83.0036 280.803L83.2485 281.955L88.6445 280.808L88.3995 279.656L86.2988 280.102Z" fill="#1E1D1D"/>
<path fill-rule="evenodd" clip-rule="evenodd" d="M87.5944 289.861C95.176 288.249 100.016 280.797 98.4042 273.215C96.7927 265.633 89.3402 260.794 81.7586 262.405C74.1769 264.017 69.3372 271.469 70.9487 279.051C72.5603 286.633 80.0128 291.472 87.5944 289.861ZM87.8188 290.917C95.9837 289.181 101.196 281.155 99.4602 272.991C97.7247 264.826 89.6989 259.614 81.5341 261.349C73.3693 263.085 68.1573 271.111 69.8928 279.275C71.6283 287.44 79.654 292.652 87.8188 290.917Z" fill="#1E1D1D"/>
<path d="M128.437 76.9971C128.728 76.9352 129.015 77.1213 129.077 77.4129L130.985 86.3887L132.041 86.1643L130.133 77.1885C129.947 76.3137 129.087 75.7552 128.212 75.9412L128.437 76.9971Z" fill="url(#paint1_linear_2101_23710)"/>
<path d="M157.588 71.3526C157.526 71.061 157.24 70.8749 156.948 70.9369L156.724 69.8809C157.598 69.6949 158.458 70.2534 158.644 71.1282L160.552 80.104L159.496 80.3284L157.588 71.3526Z" fill="url(#paint2_linear_2101_23710)"/>
<path fill-rule="evenodd" clip-rule="evenodd" d="M151.403 50.0417L126.059 55.4287C122.56 56.1724 120.326 59.6121 121.07 63.1113L129.151 101.126C129.894 104.626 133.334 106.859 136.833 106.116L162.177 100.729C165.676 99.9849 167.91 96.5453 167.166 93.0461L159.085 55.0309C158.342 51.5317 154.902 49.298 151.403 50.0417ZM133.676 54.9135L145.291 52.4444L148.322 66.7002C148.334 66.7606 148.328 66.91 148.111 67.1706C147.9 67.4253 147.542 67.7142 147.038 68.0104C146.035 68.5997 144.559 69.1554 142.85 69.5186C141.142 69.8818 139.568 69.9743 138.412 69.8439C137.831 69.7784 137.386 69.6599 137.089 69.5135C136.785 69.3636 136.719 69.2296 136.706 69.1692L133.676 54.9135ZM149.081 67.6774C149.037 67.7409 148.99 67.8022 148.941 67.8611C148.619 68.248 148.146 68.6114 147.585 68.9412C146.457 69.6036 144.865 70.194 143.075 70.5746C141.284 70.9552 139.59 71.0633 138.291 70.9167C137.644 70.8438 137.063 70.7044 136.612 70.4818C136.543 70.4479 136.475 70.411 136.409 70.3709C136.366 70.4344 136.319 70.4956 136.27 70.5545C135.948 70.9415 135.474 71.3049 134.913 71.6346C133.785 72.2971 132.194 72.8875 130.403 73.2681C128.613 73.6487 126.918 73.7567 125.619 73.6102C125.153 73.5577 124.722 73.4708 124.349 73.3432L127.872 89.9177C128.161 89.6493 128.519 89.3945 128.923 89.1572C130.051 88.4947 131.643 87.9044 133.433 87.5238C135.224 87.1432 136.918 87.0351 138.218 87.1817C138.864 87.2546 139.445 87.394 139.896 87.6166C139.965 87.6505 140.033 87.6874 140.099 87.7275C140.143 87.664 140.189 87.6028 140.238 87.5439C140.56 87.1569 141.034 86.7935 141.595 86.4638C142.723 85.8013 144.314 85.2109 146.105 84.8303C147.896 84.4497 149.59 84.3417 150.889 84.4882C151.536 84.5612 152.117 84.7006 152.568 84.9231C153.013 85.1423 153.419 85.4886 153.53 86.0113L156.672 100.795L161.952 99.6727C164.868 99.0529 166.73 96.1866 166.11 93.2706L160.354 66.1897C159.212 66.8811 157.576 67.4923 155.747 67.8811C153.956 68.2617 152.262 68.3698 150.962 68.2232C150.315 68.1503 149.735 68.0109 149.284 67.7883C149.215 67.7545 149.147 67.7176 149.081 67.6774ZM160.114 65.0601C159.14 65.7339 157.495 66.4059 155.522 66.8252C153.814 67.1884 152.239 67.2809 151.083 67.1505C150.502 67.085 150.058 66.9665 149.761 66.82C149.457 66.6701 149.39 66.5362 149.378 66.4757L146.347 52.22L151.627 51.0977C154.543 50.4779 157.41 52.3393 158.029 55.2553L160.114 65.0601ZM132.62 55.1379L135.65 69.3936C135.663 69.4541 135.657 69.6035 135.44 69.8641C135.228 70.1187 134.87 70.4076 134.366 70.7038C133.363 71.2931 131.887 71.8489 130.179 72.2121C128.47 72.5753 126.896 72.6678 125.74 72.5374C125.159 72.4719 124.715 72.3534 124.417 72.2069C124.113 72.057 124.047 71.9231 124.034 71.8626L122.126 62.8868C121.506 59.9708 123.368 57.1045 126.284 56.4846L132.62 55.1379ZM155.616 101.019L152.474 86.2358C152.461 86.1753 152.395 86.0413 152.091 85.8915C151.794 85.745 151.349 85.6265 150.768 85.561C149.612 85.4306 148.038 85.5231 146.329 85.8863C144.621 86.2495 143.145 86.8053 142.142 87.3946C141.638 87.6907 141.28 87.9797 141.068 88.2343C140.852 88.4949 140.845 88.6443 140.858 88.7048L144.001 103.488L155.616 101.019ZM139.802 88.9292C139.789 88.8687 139.723 88.7348 139.419 88.5849C139.122 88.4385 138.678 88.32 138.097 88.2545C136.941 88.1241 135.366 88.2166 133.658 88.5798C131.949 88.9429 130.473 89.4987 129.47 90.088C128.966 90.3842 128.609 90.6731 128.397 90.9278C128.18 91.1884 128.174 91.3378 128.187 91.3982L130.207 100.902C130.826 103.818 133.693 105.679 136.609 105.06L142.945 103.713L139.802 88.9292Z" fill="url(#paint3_linear_2101_23710)"/>
<path d="M216.748 33.5912C218.235 26.5928 225.114 22.1253 232.113 23.6129L435.917 66.9328C442.915 68.4203 447.382 75.2996 445.895 82.298L374.069 420.211C372.582 427.21 365.702 431.677 358.704 430.189L154.9 386.87C147.902 385.382 143.434 378.503 144.922 371.504L216.748 33.5912Z" fill="#FFF67F"/>
<path d="M217.237 33.6951C218.667 26.9668 225.28 22.6718 232.009 24.102L435.813 67.4218C442.541 68.852 446.836 75.4657 445.406 82.194L373.58 420.107C372.15 426.835 365.536 431.131 358.808 429.7L155.004 386.381C148.276 384.95 143.981 378.337 145.411 371.608L217.237 33.6951Z" stroke="white" stroke-opacity="0.35"/>
<path fill-rule="evenodd" clip-rule="evenodd" d="M216.748 33.5912C218.111 27.176 224.89 23.1813 231.888 24.6689L435.692 67.9887C442.691 69.4763 447.259 75.8828 445.895 82.298C447.382 75.2996 442.915 68.4203 435.917 66.9328L232.113 23.6129C225.114 22.1253 218.235 26.5928 216.748 33.5912Z" fill="white" fill-opacity="0.35"/>
<path d="M325.406 83.1759C326.026 80.2599 328.892 78.3985 331.808 79.0183L357.152 84.4052C360.068 85.025 361.929 87.8914 361.31 90.8074L353.229 128.823C352.609 131.739 349.743 133.6 346.827 132.98L321.484 127.593C318.568 126.973 316.706 124.107 317.326 121.191L325.406 83.1759Z" fill="url(#paint4_linear_2101_23710)"/>
<path d="M158.389 308.146L387.537 356.852L374.069 420.211C372.582 427.209 365.702 431.677 358.704 430.189L154.9 386.869C147.902 385.382 143.434 378.503 144.922 371.504L158.389 308.146Z" fill="#FBFBFB"/>
<path d="M192.205 286.302L190.852 286.014L188.365 288.575L187.139 285.225L185.767 284.933L187.562 289.499L186.807 293.05L187.968 293.297L188.728 289.721L192.205 286.302Z" fill="#1E1D1D"/>
<path d="M194.518 294.792C196.721 295.26 198.809 293.925 199.271 291.752C199.733 289.578 198.369 287.509 196.165 287.041C193.957 286.571 191.869 287.906 191.407 290.08C190.945 292.254 192.309 294.322 194.518 294.792ZM194.753 293.685C193.204 293.356 192.237 291.881 192.568 290.327C192.898 288.773 194.381 287.818 195.93 288.147C197.479 288.477 198.441 289.951 198.11 291.505C197.78 293.059 196.302 294.014 194.753 293.685Z" fill="#1E1D1D"/>
<path d="M202.805 296.553C204.511 296.916 205.988 296.186 206.338 294.539L207.402 289.532L206.241 289.285L205.222 294.081C204.947 295.374 204.066 295.721 203.029 295.501C201.996 295.281 201.337 294.607 201.612 293.313L202.631 288.518L201.471 288.271L200.406 293.278C200.056 294.926 201.108 296.193 202.805 296.553Z" fill="#1E1D1D"/>
<path d="M212.185 298.444L213.444 298.712L212.169 294.894C213.06 294.785 213.801 294.156 214.002 293.207C214.258 292.007 213.569 290.843 212.207 290.553L209.315 289.939L207.709 297.493L208.87 297.74L209.565 294.469L211.056 294.786L212.185 298.444ZM210.258 291.208L211.896 291.556C212.624 291.711 213.013 292.277 212.866 292.966C212.716 293.674 212.142 293.978 211.414 293.824L209.776 293.476L210.258 291.208Z" fill="#1E1D1D"/>
<path d="M224.97 293.266L223.751 299.001L220.234 292.259L219.26 292.052L217.654 299.607L218.78 299.846L220.002 294.097L223.512 300.852L224.495 301.061L226.101 293.507L224.97 293.266Z" fill="#1E1D1D"/>
<path d="M231.808 302.615L233.009 302.87L231.619 294.679L230.375 294.415L225.774 301.333L226.979 301.589L227.951 300.089L231.531 300.85L231.808 302.615ZM228.561 299.149L230.736 295.787L231.36 299.744L228.561 299.149Z" fill="#1E1D1D"/>
<path d="M242.247 296.939L238.61 302.056L237.378 295.904L235.903 295.59L234.297 303.144L235.458 303.391L236.683 297.627L237.917 303.914L238.487 304.035L242.18 298.801L240.956 304.56L242.117 304.807L243.723 297.252L242.247 296.939Z" fill="#1E1D1D"/>
<path d="M249.898 299.665L250.121 298.612L245.788 297.691L244.183 305.246L248.516 306.167L248.739 305.114L245.567 304.44L246.033 302.246L248.812 302.837L249.035 301.789L246.256 301.199L246.725 298.99L249.898 299.665Z" fill="#1E1D1D"/>
<path d="M202.141 266.575C204.878 265.035 207.344 262.827 207.819 260.593C208.186 258.865 207.227 257.434 205.588 257.064C203.855 256.681 202.265 257.701 201.856 259.627L203.153 259.917C203.419 258.666 204.24 257.982 205.301 258.207C206.193 258.397 206.847 259.153 206.547 260.565C206.296 261.745 205.353 263.212 200.437 266.301L200.21 267.369L206.583 268.724L206.828 267.571L202.141 266.575Z" fill="#1E1D1D"/>
<path fill-rule="evenodd" clip-rule="evenodd" d="M201.541 276.481C209.123 278.093 216.575 273.253 218.187 265.672C219.798 258.09 214.959 250.638 207.377 249.026C199.796 247.414 192.343 252.254 190.731 259.836C189.12 267.417 193.96 274.87 201.541 276.481ZM201.317 277.537C209.482 279.273 217.507 274.061 219.243 265.896C220.978 257.731 215.766 249.705 207.602 247.97C199.437 246.235 191.411 251.447 189.676 259.611C187.94 267.776 193.152 275.802 201.317 277.537Z" fill="#1E1D1D"/>
<path d="M325.432 98.6331C325.723 98.6951 325.91 98.9817 325.848 99.2733L323.94 108.249L324.996 108.474L326.904 99.4978C327.09 98.623 326.531 97.7631 325.656 97.5771L325.432 98.6331Z" fill="url(#paint5_linear_2101_23710)"/>
<path d="M354.359 105.334C354.421 105.042 354.235 104.755 353.943 104.693L354.168 103.637C355.043 103.823 355.601 104.683 355.415 105.558L353.507 114.534L352.451 114.309L354.359 105.334Z" fill="url(#paint6_linear_2101_23710)"/>
<path fill-rule="evenodd" clip-rule="evenodd" d="M357.376 83.3494L332.033 77.9625C328.534 77.2187 325.094 79.4524 324.35 82.9516L316.27 120.967C315.526 124.466 317.76 127.906 321.259 128.649L346.603 134.036C350.102 134.78 353.541 132.546 354.285 129.047L362.366 91.032C363.109 87.5328 360.876 84.0932 357.376 83.3494ZM339.2 80.5896L350.816 83.0586L347.786 97.3143C347.773 97.3748 347.707 97.5088 347.403 97.6586C347.105 97.8051 346.661 97.9236 346.08 97.9891C344.924 98.1195 343.35 98.027 341.641 97.6638C339.933 97.3006 338.457 96.7448 337.454 96.1555C336.95 95.8594 336.592 95.5704 336.38 95.3158C336.163 95.0552 336.157 94.9058 336.17 94.8453L339.2 80.5896ZM348.082 98.5161C348.016 98.5562 347.949 98.5931 347.88 98.627C347.428 98.8495 346.848 98.9889 346.201 99.0619C344.902 99.2085 343.207 99.1004 341.417 98.7198C339.626 98.3392 338.035 97.7488 336.907 97.0863C336.346 96.7566 335.872 96.3932 335.55 96.0062C335.501 95.9474 335.454 95.8861 335.411 95.8226C335.345 95.8627 335.277 95.8996 335.208 95.9335C334.757 96.1561 334.176 96.2955 333.53 96.3684C332.23 96.515 330.536 96.4069 328.745 96.0263C326.955 95.6457 325.363 95.0554 324.235 94.3929C323.831 94.1556 323.473 93.9008 323.184 93.6324L319.661 110.207C320.034 110.079 320.465 109.992 320.931 109.94C322.23 109.793 323.924 109.901 325.715 110.282C327.506 110.663 329.097 111.253 330.225 111.915C330.786 112.245 331.26 112.609 331.582 112.996C331.631 113.054 331.677 113.116 331.721 113.179C331.787 113.139 331.855 113.102 331.924 113.068C332.375 112.846 332.956 112.706 333.602 112.633C334.902 112.487 336.596 112.595 338.387 112.975C340.177 113.356 341.769 113.946 342.897 114.609C343.458 114.939 343.931 115.302 344.253 115.689C344.57 116.07 344.801 116.552 344.689 117.074L341.547 131.858L346.827 132.98C349.743 133.6 352.609 131.739 353.229 128.823L358.985 101.742C357.661 101.909 355.918 101.802 354.089 101.413C352.298 101.033 350.706 100.442 349.579 99.7798C349.018 99.4501 348.544 99.0867 348.222 98.6997C348.173 98.6408 348.126 98.5795 348.082 98.5161ZM359.225 100.612C358.062 100.832 356.286 100.777 354.313 100.357C352.604 99.9941 351.129 99.4383 350.126 98.849C349.622 98.5528 349.264 98.2639 349.052 98.0092C348.835 97.7486 348.829 97.5993 348.842 97.5388L351.872 83.2831L357.152 84.4054C360.068 85.0252 361.929 87.8915 361.31 90.8075L359.225 100.612ZM338.144 80.3652L335.114 94.6209C335.101 94.6814 335.035 94.8153 334.731 94.9652C334.434 95.1116 333.989 95.2301 333.409 95.2957C332.252 95.426 330.678 95.3335 328.97 94.9703C327.261 94.6072 325.785 94.0514 324.782 93.4621C324.278 93.1659 323.92 92.877 323.709 92.6223C323.492 92.3617 323.486 92.2124 323.498 92.1519L325.406 83.176C326.026 80.26 328.892 78.3986 331.808 79.0184L338.144 80.3652ZM340.491 131.634L343.634 116.85C343.646 116.789 343.64 116.64 343.423 116.379C343.212 116.125 342.854 115.836 342.35 115.54C341.347 114.95 339.871 114.395 338.162 114.031C336.454 113.668 334.879 113.576 333.723 113.706C333.142 113.772 332.698 113.89 332.401 114.037C332.097 114.187 332.031 114.32 332.018 114.381L328.875 129.165L340.491 131.634ZM330.962 114.156C330.975 114.096 330.968 113.947 330.752 113.686C330.54 113.431 330.182 113.142 329.678 112.846C328.675 112.257 327.199 111.701 325.491 111.338C323.782 110.975 322.208 110.882 321.052 111.013C320.471 111.078 320.026 111.197 319.729 111.343C319.425 111.493 319.359 111.627 319.346 111.687L317.326 121.191C316.706 124.107 318.568 126.974 321.484 127.593L327.819 128.94L330.962 114.156Z" fill="url(#paint7_linear_2101_23710)"/>
<defs>
<linearGradient id="paint0_linear_2101_23710" x1="138.956" y1="53.7912" x2="149.281" y2="102.366" gradientUnits="userSpaceOnUse">
<stop stop-color="#F6F7F4"/>
<stop offset="1" stop-color="#EBEBEB"/>
</linearGradient>
<linearGradient id="paint1_linear_2101_23710" x1="138.731" y1="52.7352" x2="149.505" y2="103.422" gradientUnits="userSpaceOnUse">
<stop stop-color="#A8A8A6"/>
<stop offset="0.494792" stop-color="#CFCFCE"/>
<stop offset="1" stop-color="#A8A8A6"/>
</linearGradient>
<linearGradient id="paint2_linear_2101_23710" x1="138.731" y1="52.7352" x2="149.505" y2="103.422" gradientUnits="userSpaceOnUse">
<stop stop-color="#A8A8A6"/>
<stop offset="0.494792" stop-color="#CFCFCE"/>
<stop offset="1" stop-color="#A8A8A6"/>
</linearGradient>
<linearGradient id="paint3_linear_2101_23710" x1="138.731" y1="52.7352" x2="149.505" y2="103.422" gradientUnits="userSpaceOnUse">
<stop stop-color="#A8A8A6"/>
<stop offset="0.494792" stop-color="#CFCFCE"/>
<stop offset="1" stop-color="#A8A8A6"/>
</linearGradient>
<linearGradient id="paint4_linear_2101_23710" x1="344.48" y1="81.7117" x2="334.155" y2="130.287" gradientUnits="userSpaceOnUse">
<stop stop-color="#F6F7F4"/>
<stop offset="1" stop-color="#EBEBEB"/>
</linearGradient>
<linearGradient id="paint5_linear_2101_23710" x1="344.705" y1="80.6559" x2="333.931" y2="131.343" gradientUnits="userSpaceOnUse">
<stop stop-color="#A8A8A6"/>
<stop offset="0.494792" stop-color="#CFCFCE"/>
<stop offset="1" stop-color="#A8A8A6"/>
</linearGradient>
<linearGradient id="paint6_linear_2101_23710" x1="344.705" y1="80.6559" x2="333.931" y2="131.343" gradientUnits="userSpaceOnUse">
<stop stop-color="#A8A8A6"/>
<stop offset="0.494792" stop-color="#CFCFCE"/>
<stop offset="1" stop-color="#A8A8A6"/>
</linearGradient>
<linearGradient id="paint7_linear_2101_23710" x1="344.705" y1="80.6559" x2="333.931" y2="131.343" gradientUnits="userSpaceOnUse">
<stop stop-color="#A8A8A6"/>
<stop offset="0.494792" stop-color="#CFCFCE"/>
<stop offset="1" stop-color="#A8A8A6"/>
</linearGradient>
</defs>
</svg>
