<svg width="217" height="344" viewBox="0 0 217 344" fill="none" xmlns="http://www.w3.org/2000/svg">
<path d="M0 12C0 5.37259 5.37258 0 12 0H205C211.627 0 217 5.37258 217 12V332C217 338.627 211.627 344 205 344H12C5.37258 344 0 338.627 0 332V12Z" fill="#6EEB9D"/>
<path d="M0.5 12C0.5 5.64873 5.64873 0.5 12 0.5H205C211.351 0.5 216.5 5.64873 216.5 12V332C216.5 338.351 211.351 343.5 205 343.5H12C5.64872 343.5 0.5 338.351 0.5 332V12Z" stroke="white" stroke-opacity="0.35"/>
<path fill-rule="evenodd" clip-rule="evenodd" d="M0 12C0 5.92487 5.37258 1 12 1H205C211.627 1 217 5.92487 217 12C217 5.37258 211.627 0 205 0H12C5.37258 0 0 5.37259 0 12Z" fill="#6EEB9D"/>
<path d="M108 36C108 33.2386 110.239 31 113 31H137C139.761 31 142 33.2386 142 36V72C142 74.7614 139.761 77 137 77H113C110.239 77 108 74.7614 108 72V36Z" fill="url(#paint0_linear_919_15535)"/>
<path d="M0 272H217V332C217 338.627 211.627 344 205 344H12C5.37258 344 0 338.627 0 332V272Z" fill="#FBFBFB"/>
<path d="M26.4316 245.696H25.1508L23.3902 248.495L21.6344 245.696H20.335L22.8407 249.487V252.85H23.9398V249.464L26.4316 245.696Z" fill="#1E1D1D"/>
<path d="M30.1622 252.943C32.2487 252.943 33.8835 251.331 33.8835 249.273C33.8835 247.214 32.2487 245.603 30.1622 245.603C28.071 245.603 26.4362 247.214 26.4362 249.273C26.4362 251.331 28.071 252.943 30.1622 252.943ZM30.1622 251.895C28.6951 251.895 27.5354 250.744 27.5354 249.273C27.5354 247.801 28.6951 246.65 30.1622 246.65C31.6293 246.65 32.7843 247.801 32.7843 249.273C32.7843 250.744 31.6293 251.895 30.1622 251.895Z" fill="#1E1D1D"/>
<path d="M38.01 252.943C39.6261 252.943 40.8231 251.997 40.8231 250.437V245.696H39.7239V250.237C39.7239 251.462 38.9927 251.946 38.01 251.946C37.0319 251.946 36.3054 251.462 36.3054 250.237V245.696H35.2062V250.437C35.2062 251.997 36.4032 252.943 38.01 252.943Z" fill="#1E1D1D"/>
<path d="M46.8731 252.85H48.0654L46.1745 249.636C46.9616 249.366 47.5112 248.653 47.5112 247.754C47.5112 246.618 46.6635 245.696 45.3734 245.696H42.6348V252.85H43.734V249.752H45.1452L46.8731 252.85ZM43.734 246.664H45.2849C45.9742 246.664 46.4353 247.102 46.4353 247.754C46.4353 248.425 45.9742 248.812 45.2849 248.812H43.734V246.664Z" fill="#1E1D1D"/>
<path d="M57.4595 245.696V251.126L52.9744 245.696H52.0522V252.85H53.1188V247.405L57.5992 252.85H58.5307V245.696H57.4595Z" fill="#1E1D1D"/>
<path d="M65.4564 252.85H66.5928L63.7564 245.696H62.5781L59.7417 252.85H60.8827L61.4742 251.303H64.8649L65.4564 252.85ZM61.8468 250.335L63.1695 246.869L64.4969 250.335H61.8468Z" fill="#1E1D1D"/>
<path d="M73.8211 245.696L71.511 251.033L69.2103 245.696H67.813V252.85H68.9122V247.391L71.2409 252.85H71.7812L74.1192 247.396V252.85H75.2184V245.696H73.8211Z" fill="#1E1D1D"/>
<path d="M81.2777 246.692V245.696H77.1745V252.85H81.2777V251.853H78.2737V249.776H80.9051V248.784H78.2737V246.692H81.2777Z" fill="#1E1D1D"/>
<path d="M33.7055 225.909V216.78H32.7673L30.585 218.703V219.981L32.5744 218.224V225.909H30.585V227H35.6949V225.909H33.7055Z" fill="#1E1D1D"/>
<path fill-rule="evenodd" clip-rule="evenodd" d="M33 235C40.1797 235 46 229.18 46 222C46 214.82 40.1797 209 33 209C25.8203 209 20 214.82 20 222C20 229.18 25.8203 235 33 235ZM33 236C40.732 236 47 229.732 47 222C47 214.268 40.732 208 33 208C25.268 208 19 214.268 19 222C19 229.732 25.268 236 33 236Z" fill="#1E1D1D"/>
<path d="M111 50C111.276 50 111.5 50.2239 111.5 50.5V59H112.5V50.5C112.5 49.6716 111.828 49 111 49V50Z" fill="url(#paint1_linear_919_15535)"/>
<path d="M138.5 50.5C138.5 50.2239 138.276 50 138 50V49C138.828 49 139.5 49.6716 139.5 50.5V59H138.5V50.5Z" fill="url(#paint2_linear_919_15535)"/>
<path fill-rule="evenodd" clip-rule="evenodd" d="M137 30H113C109.686 30 107 32.6863 107 36V72C107 75.3137 109.686 78 113 78H137C140.314 78 143 75.3137 143 72V36C143 32.6863 140.314 30 137 30ZM120 31H131V44.5C131 44.5573 130.966 44.6914 130.719 44.8858C130.478 45.0757 130.098 45.2686 129.585 45.4399C128.562 45.7806 127.118 46 125.5 46C123.882 46 122.438 45.7806 121.415 45.4399C120.902 45.2686 120.522 45.0757 120.281 44.8858C120.034 44.6914 120 44.5573 120 44.5V31ZM131.5 45.5318C131.448 45.5808 131.394 45.6273 131.338 45.6712C130.972 45.9598 130.473 46.1979 129.901 46.3886C128.752 46.7716 127.196 47 125.5 47C123.804 47 122.248 46.7716 121.099 46.3886C120.527 46.1979 120.028 45.9598 119.662 45.6712C119.606 45.6273 119.552 45.5808 119.5 45.5318C119.448 45.5808 119.394 45.6273 119.338 45.6712C118.972 45.9598 118.473 46.1979 117.901 46.3886C116.752 46.7716 115.196 47 113.5 47C111.804 47 110.248 46.7716 109.099 46.3886C108.688 46.2513 108.314 46.0896 108 45.9021V61.5979C108.314 61.4104 108.688 61.2487 109.099 61.1114C110.248 60.7284 111.804 60.5 113.5 60.5C115.196 60.5 116.752 60.7284 117.901 61.1114C118.473 61.3021 118.972 61.5402 119.338 61.8288C119.394 61.8727 119.448 61.9192 119.5 61.9682C119.552 61.9192 119.606 61.8727 119.662 61.8288C120.028 61.5402 120.527 61.3021 121.099 61.1114C122.248 60.7284 123.804 60.5 125.5 60.5C127.196 60.5 128.752 60.7284 129.901 61.1114C130.473 61.3021 130.972 61.5402 131.338 61.8288C131.699 62.113 132 62.505 132 63V77H137C139.761 77 142 74.7614 142 72V46.3547C140.833 46.7613 139.233 47 137.5 47C135.804 47 134.248 46.7716 133.099 46.3886C132.527 46.1979 132.028 45.9598 131.662 45.6712C131.606 45.6273 131.552 45.5808 131.5 45.5318ZM142 45.285C140.988 45.708 139.368 46 137.5 46C135.882 46 134.438 45.7806 133.415 45.4399C132.902 45.2686 132.522 45.0757 132.281 44.8858C132.034 44.6914 132 44.5573 132 44.5V31H137C139.761 31 142 33.2386 142 36V45.285ZM119 31V44.5C119 44.5573 118.966 44.6914 118.719 44.8858C118.478 45.0757 118.098 45.2686 117.585 45.4399C116.562 45.7806 115.118 46 113.5 46C111.882 46 110.438 45.7806 109.415 45.4399C108.902 45.2686 108.522 45.0757 108.281 44.8858C108.034 44.6914 108 44.5573 108 44.5V36C108 33.2386 110.239 31 113 31H119ZM131 77V63C131 62.9427 130.966 62.8086 130.719 62.6142C130.478 62.4243 130.098 62.2314 129.585 62.0601C128.562 61.7194 127.118 61.5 125.5 61.5C123.882 61.5 122.438 61.7194 121.415 62.0601C120.902 62.2314 120.522 62.4243 120.281 62.6142C120.034 62.8086 120 62.9427 120 63V77H131ZM119 63C119 62.9427 118.966 62.8086 118.719 62.6142C118.478 62.4243 118.098 62.2314 117.585 62.0601C116.562 61.7194 115.118 61.5 113.5 61.5C111.882 61.5 110.438 61.7194 109.415 62.0601C108.902 62.2314 108.522 62.4243 108.281 62.6142C108.034 62.8086 108 62.9427 108 63V72C108 74.7614 110.239 77 113 77H119V63Z" fill="url(#paint3_linear_919_15535)"/>
<defs>
<linearGradient id="paint0_linear_919_15535" x1="125" y1="31" x2="125" y2="77" gradientUnits="userSpaceOnUse">
<stop stop-color="#F6F7F4"/>
<stop offset="1" stop-color="#EBEBEB"/>
</linearGradient>
<linearGradient id="paint1_linear_919_15535" x1="125" y1="30" x2="125" y2="78" gradientUnits="userSpaceOnUse">
<stop stop-color="#A8A8A6"/>
<stop offset="0.494792" stop-color="#CFCFCE"/>
<stop offset="1" stop-color="#A8A8A6"/>
</linearGradient>
<linearGradient id="paint2_linear_919_15535" x1="125" y1="30" x2="125" y2="78" gradientUnits="userSpaceOnUse">
<stop stop-color="#A8A8A6"/>
<stop offset="0.494792" stop-color="#CFCFCE"/>
<stop offset="1" stop-color="#A8A8A6"/>
</linearGradient>
<linearGradient id="paint3_linear_919_15535" x1="125" y1="30" x2="125" y2="78" gradientUnits="userSpaceOnUse">
<stop stop-color="#A8A8A6"/>
<stop offset="0.494792" stop-color="#CFCFCE"/>
<stop offset="1" stop-color="#A8A8A6"/>
</linearGradient>
</defs>
</svg>
