<svg width="350" height="351" viewBox="0 0 350 351" fill="none" xmlns="http://www.w3.org/2000/svg">
<path d="M158.626 75.9137L158.626 75.9137L158.626 75.9098C158.615 75.6574 158.594 74.9778 158.566 74.0411C158.548 73.4488 158.526 72.7537 158.502 71.9989L162.564 71.5476L162.616 75.6297C162.616 75.6385 162.615 75.6487 162.614 75.66C162.611 75.6988 162.608 75.7521 162.607 75.8171C162.606 75.9465 162.613 76.1259 162.645 76.3326C162.71 76.7426 162.882 77.2885 163.323 77.7547C163.697 78.1542 163.962 78.7167 164.104 79.3213C164.177 79.6341 164.215 79.9467 164.221 80.2389C163.861 79.9681 163.438 79.802 162.947 79.802V80.2588C162.947 79.802 162.947 79.802 162.947 79.802H162.946L162.945 79.802L162.944 79.802L162.94 79.802L162.929 79.8022C162.921 79.8023 162.91 79.8026 162.897 79.8032C162.871 79.8043 162.836 79.8064 162.794 79.8103C162.708 79.8181 162.59 79.8333 162.452 79.8631C162.205 79.9161 161.882 80.0174 161.555 80.2131L161.233 80.2383C161.048 80.0937 160.873 79.9607 160.71 79.8365L160.704 79.8314C160.493 79.6706 160.304 79.5265 160.131 79.3871C159.784 79.1083 159.523 78.8658 159.318 78.5952C158.924 78.0753 158.68 77.3724 158.626 75.9137Z" fill="#67E0A8" stroke="#1E1D1D"/>
<path d="M150.809 72.2418C150.834 71.7801 150.854 71.2355 150.872 70.6452L154.557 71.7035C154.424 73.2464 154.311 74.5245 154.231 75.1374L154.231 75.1374L154.231 75.1406C154.1 76.1941 153.775 76.9478 153.282 77.5337C152.783 78.1257 152.08 78.5843 151.13 78.9925C150.075 79.4429 149.385 79.9742 148.952 80.4072C148.867 80.4921 148.792 80.5731 148.727 80.6486C148.569 80.3878 148.498 80.0655 148.5 79.6766C148.503 79.0528 148.7 78.3128 148.993 77.5334C149.269 76.8009 149.616 76.0734 149.928 75.4182C149.946 75.381 149.963 75.3441 149.981 75.3075C150.141 74.9697 150.293 74.6491 150.413 74.367C150.529 74.0933 150.63 73.8242 150.676 73.5935C150.736 73.3168 150.777 72.826 150.809 72.2418Z" fill="#67E0A8" stroke="#1E1D1D"/>
<g clip-path="url(#clip0_1827_22957)">
<path d="M158.12 76.0641L158.12 76.0641L158.119 76.0601C158.108 75.8078 158.087 75.1282 158.059 74.1915C158.041 73.5992 158.019 72.9041 157.995 72.1493L162.057 71.698L162.11 75.7801C162.109 75.7889 162.108 75.7991 162.107 75.8104C162.104 75.8492 162.101 75.9024 162.101 75.9674C162.099 76.0969 162.106 76.2762 162.139 76.483C162.204 76.893 162.375 77.4389 162.816 77.9051C163.19 78.3046 163.455 78.8671 163.597 79.4717C163.67 79.7845 163.708 80.0971 163.714 80.3892C163.354 80.1185 162.931 79.9523 162.44 79.9523V80.4092C162.44 79.9523 162.44 79.9523 162.44 79.9523H162.439L162.439 79.9523L162.437 79.9524L162.433 79.9524L162.423 79.9525C162.414 79.9527 162.404 79.953 162.391 79.9536C162.365 79.9547 162.33 79.9568 162.287 79.9607C162.201 79.9685 162.084 79.9837 161.945 80.0135C161.698 80.0665 161.376 80.1678 161.048 80.3635L160.726 80.3887C160.541 80.2441 160.366 80.1111 160.204 79.9869L160.197 79.9818C159.986 79.821 159.797 79.6769 159.624 79.5375C159.277 79.2587 159.016 79.0162 158.811 78.7456C158.418 78.2257 158.173 77.5228 158.12 76.0641Z" stroke="#1E1D1D"/>
<path d="M150.302 72.3917C150.327 71.93 150.348 71.3854 150.365 70.7951L154.05 71.8534C153.917 73.3963 153.804 74.6744 153.724 75.2873L153.724 75.2873L153.724 75.2905C153.593 76.344 153.269 77.0977 152.775 77.6836C152.276 78.2756 151.574 78.7342 150.623 79.1424C149.569 79.5928 148.878 80.1241 148.445 80.5571C148.36 80.642 148.285 80.723 148.22 80.7985C148.062 80.5377 147.991 80.2154 147.993 79.8265C147.997 79.2027 148.193 78.4627 148.487 77.6833C148.763 76.9508 149.109 76.2233 149.421 75.5681C149.439 75.5309 149.456 75.494 149.474 75.4574C149.634 75.1196 149.786 74.799 149.906 74.5169C150.022 74.2432 150.123 73.9741 150.17 73.7434C150.229 73.4667 150.27 72.9759 150.302 72.3917Z" stroke="#1E1D1D"/>
<path d="M90.5398 241.446C90.6372 241.409 90.7328 241.371 90.8271 241.333C90.798 241.409 90.7709 241.486 90.7455 241.564C90.5153 242.266 90.407 243.072 90.3633 243.841C90.3473 244.122 90.3398 244.4 90.3385 244.671C89.7102 243.667 88.7508 242.41 87.2886 240.966C87.8028 241.232 88.2934 241.465 88.7251 241.637L88.7264 241.637C89.0317 241.758 89.3529 241.754 89.646 241.706C89.9397 241.658 90.2445 241.558 90.5398 241.446Z" fill="#201F1F" stroke="#1E1D1D"/>
<path d="M317.78 332.452C291.2 332.452 237.7 323.942 217.5 325.012C201.93 325.832 188.8 328.902 171.79 331.742C156.85 334.232 142.03 333.162 127.86 332.802C113.68 332.452 99.1599 328.552 99.1599 328.552" stroke="#1E1D1D" stroke-width="2" stroke-linecap="round" stroke-linejoin="round"/>
<path d="M227.26 227.032C282.55 245.202 331.14 235.862 336.43 234.752" stroke="#1E1D1D" stroke-width="2" stroke-linecap="round" stroke-linejoin="round"/>
<path d="M238.41 238.902C238.41 238.902 233.91 235.732 227.26 227.032C222.38 220.682 216.34 211.362 210.06 198.162C196.24 169.102 196.6 174.422 184.9 157.052C173.67 140.362 167.91 124.432 166.24 103.382C166.01 100.582 165.85 97.6921 165.77 94.6921C165.77 94.6921 166.23 84.5021 163.96 81.3621C163.55 80.7921 163.05 80.4521 162.44 80.4521C162.44 80.4521 161.81 80.4521 161.21 80.8521C160.96 81.0221 160.71 81.2721 160.51 81.6121C160.35 81.9021 160.23 82.2621 160.17 82.7221C159.89 84.9821 159.42 94.7921 160.27 103.292C160.27 103.292 163.86 104.262 165.84 103.412" stroke="#1E1D1D" stroke-width="2" stroke-linecap="round" stroke-linejoin="round"/>
<path d="M165.27 132.612L170.94 130.052" stroke="#201F1F" stroke-width="2" stroke-linecap="round" stroke-linejoin="round"/>
<path d="M168.68 139.692L173.21 136.862" stroke="#201F1F" stroke-width="2" stroke-linecap="round" stroke-linejoin="round"/>
<path d="M160.46 81.5819C160.46 81.5819 154.15 77.2219 148.94 81.9419C148.52 82.3319 148.11 82.7719 147.7 83.2819C143.26 88.8919 137.55 100.302 136.93 123.252C136.08 154.432 145.49 176.812 145.15 192.982C145.12 194.292 145.05 195.562 144.94 196.822C143.95 208.322 139.94 217.792 138.91 232.102C138.54 237.292 137.89 243.562 137.56 251.042C136.94 265.372 137.49 284.152 143.45 308.352" stroke="#201F1F" stroke-width="2" stroke-linecap="round" stroke-linejoin="round"/>
<path d="M144.48 196.782C144.48 196.782 140.9 198.092 129.56 198.092C118.22 198.092 101.78 198.372 90.72 200.072C79.67 201.772 72.0099 202.902 66.3499 204.612C60.6799 206.312 38.06 213.842 28.08 227.002C21.84 235.222 22.69 249.112 26.66 253.362C27.09 253.822 27.63 254.312 28.27 254.822C32.55 258.262 41.08 262.722 46.5 264.702C52.74 266.972 66.0799 273.122 70.5999 274.342C77.9699 276.322 83.64 276.892 89.02 275.472C94.41 274.052 100.08 271.502 110.28 267.532C113.79 266.172 117.28 264.762 120.44 263.402C122.87 262.352 125.1 261.342 127.01 260.392C129.87 258.982 131.99 257.722 132.96 256.762C134.37 255.352 135.87 252.982 135.87 250.962C135.87 249.322 134.9 247.912 132.11 247.412C132.11 247.412 128.76 248.702 123.89 250.532C119.35 252.232 119.07 254.492 118.79 257.332C118.48 260.432 120.2 262.722 120.2 262.722" stroke="#201F1F" stroke-width="2" stroke-linecap="round" stroke-linejoin="round"/>
<path d="M31.7599 240.042C31.7599 240.042 28.3599 246.842 29.4099 255.252" stroke="#201F1F" stroke-width="2" stroke-linecap="round" stroke-linejoin="round"/>
<path d="M83.07 264.422C83.07 264.422 83.35 271.222 82.5 275.192" stroke="#201F1F" stroke-width="2" stroke-linecap="round" stroke-linejoin="round"/>
<path d="M92.9899 261.872C92.9899 261.872 93.2699 270.092 91.5699 274.052" stroke="#201F1F" stroke-width="2" stroke-linecap="round" stroke-linejoin="round"/>
<path d="M23.54 266.402C23.54 266.402 20.71 272.072 20.71 278.872" stroke="#201F1F" stroke-width="2" stroke-linecap="round" stroke-linejoin="round"/>
<path d="M86.1899 292.202C86.1899 292.202 84.7699 299.282 85.6199 305.242" stroke="#201F1F" stroke-width="2" stroke-linecap="round" stroke-linejoin="round"/>
<path d="M94.98 288.792C94.98 288.792 97.53 295.312 95.26 301.832" stroke="#201F1F" stroke-width="2" stroke-linecap="round" stroke-linejoin="round"/>
<path d="M31.2 297.582C31.2 297.582 30.63 300.982 31.2 304.672" stroke="#201F1F" stroke-width="2" stroke-linecap="round" stroke-linejoin="round"/>
<path d="M84.4899 311.752C84.4899 311.752 83.0699 317.142 85.8999 322.812" stroke="#201F1F" stroke-width="2" stroke-linecap="round" stroke-linejoin="round"/>
<path d="M92.4199 310.902V320.262" stroke="#201F1F" stroke-width="2" stroke-linecap="round" stroke-linejoin="round"/>
<path d="M93.0899 327.902L92.8099 331.212" stroke="#201F1F" stroke-width="2" stroke-linecap="round" stroke-linejoin="round"/>
<path d="M87.89 327.352C87.89 327.352 87.04 331.032 87.89 334.152" stroke="#201F1F" stroke-width="2" stroke-linecap="round" stroke-linejoin="round"/>
<path d="M92.26 240.232C92.39 240.132 92.55 240.082 92.71 240.042C95.84 239.302 98.69 238.802 101.91 238.202C103.54 237.902 105.26 237.582 107.16 237.202C112.83 236.072 133.24 234.092 134.09 247.982" stroke="#201F1F" stroke-width="2" stroke-linecap="round" stroke-linejoin="round"/>
<path d="M91.0099 247.352C91.0099 247.352 90.9999 247.312 90.9899 247.232C90.8899 246.402 90.3399 241.422 92.2199 240.252" stroke="#201F1F" stroke-width="2" stroke-linecap="round" stroke-linejoin="round"/>
<path d="M50.47 227.282C50.47 227.282 64.82 227.182 77.4 234.372C79.18 235.392 80.72 236.372 82.07 237.322C89.52 242.552 90.8 246.502 90.99 247.232" stroke="#201F1F" stroke-width="2" stroke-linecap="round" stroke-linejoin="round"/>
<path d="M85.34 239.472C85.34 239.472 85.35 239.422 85.4 239.332C85.58 238.892 86.55 237.442 91.01 236.642C96.18 235.692 100.37 234.172 102.3 232.062C102.7 231.622 103.01 231.162 103.2 230.682C104.33 227.852 104.33 218.212 96.11 210.562" stroke="#201F1F" stroke-width="2" stroke-linecap="round" stroke-linejoin="round"/>
<path d="M102.35 232.102L101.78 237.492" stroke="#201F1F" stroke-width="2" stroke-linecap="round" stroke-linejoin="round"/>
<path d="M28.08 255.062C28.08 255.062 20.42 255.912 17.87 260.162C15.32 264.422 8.22995 278.592 23.54 287.092C25.4 288.122 27.28 289.092 29.17 290.012C42.88 296.612 57.13 300.192 66.35 302.682C76.83 305.522 85.34 307.502 92.71 303.822C100.08 300.132 111.42 289.642 116.52 286.242C117.44 285.622 118.56 284.892 119.78 284.082C120.16 283.832 120.54 283.572 120.94 283.302C126.31 279.722 132.95 275.082 133.81 272.922C134.69 270.712 135.23 268.002 133.83 266.902C133.43 266.582 132.87 266.402 132.11 266.402C128.71 266.402 120.77 271.222 120.77 271.222C120.77 271.222 118.72 271.792 118.79 277.462C118.83 282.032 119.6 283.752 119.78 284.082C119.8 284.122 119.81 284.142 119.81 284.142" stroke="#201F1F" stroke-width="2" stroke-linecap="round" stroke-linejoin="round"/>
<path d="M126.89 260.392C126.89 260.392 126.93 260.392 127.01 260.392C127.56 260.402 129.93 260.572 131.43 262.722C133.13 265.152 133.87 266.852 133.87 266.852" stroke="#201F1F" stroke-width="2" stroke-linecap="round" stroke-linejoin="round"/>
<path d="M28.9299 290.492C28.9299 290.492 24.6799 293.612 25.2399 300.422C25.6799 305.642 29.4499 310.522 37.3299 313.792C39.7199 314.782 42.4799 315.632 45.6499 316.292C59.2599 319.122 66.3399 319.972 72.0099 321.392C77.6799 322.812 83.0699 324.792 89.5899 321.962C96.1099 319.122 102.34 314.592 108.01 309.492C108.39 309.152 108.78 308.802 109.19 308.442C110.96 306.892 112.95 305.212 114.91 303.582C119.19 300.022 123.29 296.732 124.46 295.602C126.62 293.482 127.55 290.372 126.76 288.642C126.66 288.422 126.53 288.232 126.38 288.062C124.74 286.242 122.16 288.272 121.62 288.682C120.94 289.192 114.93 294.072 114.93 294.072C114.93 294.072 113.8 295.482 114.02 296.792C114.25 298.092 115.16 301.322 114.87 303.532" stroke="#201F1F" stroke-width="2" stroke-linecap="round" stroke-linejoin="round"/>
<path d="M121.05 283.472C121.05 283.472 126.38 284.662 126.89 288.572" stroke="#201F1F" stroke-width="2" stroke-linecap="round" stroke-linejoin="round"/>
<path d="M82.11 237.262C82.11 237.262 83.64 238.292 85.4 239.332C86.61 240.052 87.93 240.782 88.91 241.172C89.67 241.472 90.92 240.662 92.22 240.252L92.23 240.242H92.24C92.25 240.242 92.25 240.232 92.26 240.232C92.41 240.182 92.56 240.142 92.71 240.102" stroke="#201F1F" stroke-width="2" stroke-linecap="round" stroke-linejoin="round"/>
<path d="M37.2899 313.882C37.2899 313.882 34.4599 315.862 34.8799 320.262C35.3099 324.652 38.2799 329.612 44.2399 331.172C50.1899 332.732 64.0799 333.862 70.5999 334.572C77.1199 335.282 83.9199 336.702 91.9999 332.732C94.7799 331.372 97.0999 329.932 99.1199 328.502C102.6 326.042 105.16 323.582 107.55 321.482C107.8 321.262 108.05 321.042 108.3 320.832C112.27 317.422 116.84 313.762 116.66 309.912C116.52 306.942 115.33 306.172 114.19 306.602C113.41 306.892 111.82 307.972 110.11 309.492C109.34 310.192 108.54 310.972 107.79 311.812C105.38 314.502 105.69 316.182 106.31 318.272C106.72 319.642 107.16 320.602 107.5 321.392" stroke="#201F1F" stroke-width="2" stroke-linecap="round" stroke-linejoin="round"/>
<path d="M149.97 62.5919C149.97 62.5919 149.97 66.9519 149.88 70.2319C149.84 71.8319 149.78 73.1819 149.68 73.6419C149.4 75.0619 146 79.8819 148.27 81.5819C148.27 81.5819 148.83 80.4519 150.82 79.6019C152.8 78.7519 153.94 77.6119 154.22 75.3519C154.31 74.6619 154.44 73.1619 154.59 71.4119C154.93 67.4519 155.32 62.2119 155.32 62.2119" stroke="#201F1F" stroke-width="1.5" stroke-linecap="round" stroke-linejoin="round"/>
<path d="M150.25 70.2422L154.22 71.3822" stroke="#201F1F" stroke-width="1.5" stroke-linecap="round" stroke-linejoin="round"/>
<path d="M157.22 61.9723C157.22 61.9723 157.37 67.5123 157.48 71.6723C157.55 73.8423 157.6 75.6323 157.62 76.0823C157.73 79.0923 158.64 79.3723 160.57 80.9023C160.57 80.9023 162.5 78.9323 164.14 81.2423C164.37 80.1623 164.08 78.5223 163.18 77.5623C162.48 76.8223 162.61 75.8023 162.61 75.8023L162.55 71.1523L162.45 62.0023L162.44 61.5723" stroke="#201F1F" stroke-width="1.5" stroke-linecap="round" stroke-linejoin="round"/>
<path d="M157.85 71.6619L162.44 71.1519" stroke="#201F1F" stroke-width="1.5" stroke-linecap="round" stroke-linejoin="round"/>
<path d="M153.17 37.642C153.18 37.142 153.26 36.792 153.26 36.792" stroke="#201F1F" stroke-width="1.5" stroke-linecap="round" stroke-linejoin="round"/>
<path d="M149.57 42.6922L149.56 42.8222L148.1 61.9122L149.97 61.9222L155.32 61.9622L157.22 61.9722L162.45 62.0022L165.39 62.0222C165.39 62.0222 164.37 49.9522 163.23 44.3322C163.23 44.3322 163.15 44.2422 163.02 44.0822C162.29 43.1922 159.95 40.1522 159.66 37.4722C159.66 37.4722 159.68 37.9722 159.52 38.5922C159.27 39.6522 158.53 41.0822 156.43 41.0522C153.55 41.0122 153.16 38.9022 153.17 37.6622" stroke="#201F1F" stroke-width="1.5" stroke-linecap="round" stroke-linejoin="round"/>
<path d="M163.06 44.0522C163.06 44.0522 166.18 37.0222 166.86 32.0922C167.54 27.1622 168 26.4222 168.45 25.2322C168.9 24.0422 171.79 17.9222 171.79 17.9222L169.75 19.2222L170.66 15.4822L168.79 18.4322L168.39 14.8022L166.52 19.6222L165.56 17.9222C165.56 17.9222 165.05 22.2822 164.59 24.1522C164.41 24.9322 163.95 26.6922 163.3 28.7622C162.43 31.6122 161.21 35.0622 159.89 37.3622" stroke="#201F1F" stroke-width="1.5" stroke-linecap="round" stroke-linejoin="round"/>
<path d="M153.14 36.282C153.14 36.282 153.04 35.922 152.88 35.322C152.37 33.422 151.2 29.122 150.47 26.512C150.16 25.432 149.93 24.642 149.85 24.432C149.51 23.532 148.49 20.582 148.49 19.452C148.49 18.312 147.76 15.532 147.76 15.532L147.13 18.652L144.58 13.832L144.69 18.372L143.11 16.272L143.45 19.392L141.86 17.972L144.52 23.592C144.52 23.592 145.37 25.572 146.05 28.862C146.7 31.952 148.54 39.612 149.56 42.822C149.62 43.022 149.68 43.202 149.74 43.372" stroke="#201F1F" stroke-width="1.5" stroke-linecap="round" stroke-linejoin="round"/>
<path d="M153.2 37.5322L153.17 37.6422V37.6622L151.38 44.7322L149.85 43.3122" stroke="#201F1F" stroke-width="1.5" stroke-linecap="round" stroke-linejoin="round"/>
<path d="M153.09 35.242C153.09 35.242 153.09 35.252 153.1 35.262C153.13 35.292 153.2 35.382 153.31 35.492C153.73 35.922 154.76 36.752 156.35 36.652C157.45 36.582 158.25 35.782 158.76 35.022" stroke="#201F1F" stroke-width="1.5" stroke-linecap="round" stroke-linejoin="round"/>
<path d="M150.68 26.4518C150.68 26.4518 150.96 22.6218 154.93 23.6118C154.93 23.6118 155.49 21.7718 157.48 22.2018C158.73 22.4618 158.9 23.7518 158.9 23.7518C158.9 23.7518 161.02 24.1818 160.88 26.4518C160.88 26.4518 163.21 26.3118 163.21 28.7318C163.21 28.7418 163.21 28.7518 163.21 28.7618" stroke="#201F1F" stroke-width="1.5" stroke-linecap="round" stroke-linejoin="round"/>
<path d="M153.31 35.4919C153.31 35.4919 152.66 32.0319 153.65 29.4219C153.65 29.4219 155.35 30.6219 156.2 30.6219C157.05 30.6219 158.27 30.1319 159.27 31.2719L158.9 34.9519L158.91 34.9919L159.52 38.5919L159.55 38.7819" stroke="#201F1F" stroke-width="1.5" stroke-linecap="round" stroke-linejoin="round"/>
<path d="M163.23 44.3322C163.23 44.3322 163.15 44.2422 163.02 44.0822C162.29 43.1922 159.95 40.1522 159.66 37.4722C159.66 37.4722 159.68 37.9722 159.52 38.5922C159.27 39.6522 158.53 41.0822 156.43 41.0522C153.55 41.0122 153.16 38.9022 153.17 37.6622L151.38 44.7322L149.85 43.3122L149.74 43.3722C149.68 43.2022 149.62 43.0222 149.56 42.8222L148.1 61.9122L149.97 61.9222L155.32 61.9622L157.22 61.9722L162.45 62.0022L165.39 62.0222C165.39 62.0222 164.37 49.9522 163.23 44.3322ZM154.78 43.1622C154.99 42.8122 155.47 42.6722 155.82 42.8822C156.17 43.0922 156.3 43.5322 156.09 43.8922L156.06 43.9422C155.92 44.1722 155.67 44.3022 155.42 44.3022C155.29 44.3022 155.15 44.2622 155.03 44.1922C154.68 43.9822 154.57 43.5122 154.78 43.1622ZM150.15 46.0722C150.36 45.7122 150.83 45.5722 151.19 45.7822C151.55 45.9922 151.68 46.4222 151.47 46.7822L151.44 46.8322C151.3 47.0722 151.05 47.2022 150.79 47.2022C150.66 47.2022 150.53 47.1722 150.41 47.1022C150.06 46.8922 149.94 46.4322 150.15 46.0722ZM151.53 50.8422L151.5 50.8922C151.36 51.1222 151.11 51.2522 150.86 51.2522C150.73 51.2522 150.59 51.2122 150.47 51.1422C150.12 50.9322 150 50.4622 150.22 50.1122C150.43 49.7622 150.91 49.6222 151.26 49.8322C151.62 50.0522 151.75 50.4922 151.53 50.8422ZM151.02 56.0622C150.87 56.2422 150.65 56.3422 150.44 56.3422C150.27 56.3422 150.11 56.2922 149.97 56.1722C149.65 55.9122 149.6 55.4422 149.85 55.1222C150.11 54.8022 150.6 54.7222 150.93 54.9822C151.25 55.2422 151.32 55.6922 151.06 56.0122L151.02 56.0622ZM152.55 60.1222L152.51 60.1722C152.36 60.3522 152.14 60.4522 151.93 60.4522C151.76 60.4522 151.6 60.4022 151.46 60.2822C151.14 60.0222 151.09 59.5522 151.34 59.2322C151.6 58.9122 152.09 58.8322 152.42 59.0922C152.74 59.3522 152.81 59.8022 152.55 60.1222ZM153.33 48.2322C152.98 48.0222 152.86 47.5522 153.08 47.2022C153.29 46.8522 153.77 46.7122 154.12 46.9222C154.47 47.1422 154.6 47.5722 154.39 47.9322L154.36 47.9822C154.22 48.2122 153.97 48.3422 153.72 48.3422C153.59 48.3422 153.46 48.3022 153.33 48.2322ZM154.07 51.6922C154.33 51.3722 154.82 51.2922 155.15 51.5522C155.48 51.8122 155.54 52.2622 155.28 52.5822L155.24 52.6322C155.09 52.8122 154.87 52.9122 154.66 52.9122C154.49 52.9122 154.33 52.8622 154.19 52.7422C153.86 52.4922 153.81 52.0122 154.07 51.6922ZM155.57 56.5122L155.54 56.5622C155.4 56.7922 155.15 56.9222 154.9 56.9222C154.77 56.9222 154.63 56.8822 154.51 56.8122C154.16 56.6022 154.04 56.1322 154.26 55.7822C154.47 55.4322 154.95 55.2922 155.3 55.5022C155.66 55.7222 155.79 56.1622 155.57 56.5122ZM157.34 60.7622L157.31 60.8122C157.17 61.0422 156.92 61.1722 156.67 61.1722C156.54 61.1722 156.4 61.1322 156.28 61.0622C155.93 60.8522 155.81 60.3822 156.03 60.0322C156.24 59.6822 156.72 59.5422 157.07 59.7522C157.43 59.9722 157.56 60.4122 157.34 60.7622ZM158.39 48.4222C158.24 48.6022 158.02 48.7022 157.81 48.7022C157.64 48.7022 157.48 48.6522 157.34 48.5322C157.02 48.2722 156.97 47.8022 157.22 47.4822C157.48 47.1622 157.97 47.0822 158.3 47.3422C158.63 47.6022 158.69 48.0522 158.43 48.3722L158.39 48.4222ZM158.58 52.5122C158.79 52.1622 159.27 52.0222 159.62 52.2322C159.97 52.4522 160.1 52.8822 159.89 53.2422L159.86 53.2922C159.72 53.5222 159.47 53.6522 159.22 53.6522C159.09 53.6522 158.95 53.6122 158.83 53.5422C158.48 53.3322 158.37 52.8722 158.58 52.5122ZM160.13 58.0122L160.09 58.0622C159.94 58.2422 159.72 58.3422 159.51 58.3422C159.34 58.3422 159.18 58.2922 159.04 58.1722C158.72 57.9122 158.67 57.4422 158.92 57.1222C159.18 56.8022 159.67 56.7222 160 56.9822C160.33 57.2422 160.39 57.6922 160.13 58.0122ZM160.3 43.3922L160.26 43.4422C160.11 43.6322 159.89 43.7322 159.67 43.7322C159.51 43.7322 159.34 43.6822 159.21 43.5722C158.88 43.3122 158.83 42.8422 159.09 42.5222C159.35 42.2022 159.84 42.1122 160.16 42.3722C160.48 42.6222 160.56 43.0722 160.3 43.3922ZM161.3 48.9522C160.98 48.6922 160.93 48.2222 161.18 47.9022C161.44 47.5822 161.93 47.5022 162.26 47.7622C162.58 48.0222 162.65 48.4722 162.39 48.7922L162.35 48.8422C162.2 49.0222 161.98 49.1222 161.77 49.1222C161.61 49.1222 161.44 49.0722 161.3 48.9522ZM162.27 53.9422C162.48 53.5822 162.95 53.4422 163.31 53.6522C163.67 53.8622 163.8 54.2922 163.59 54.6522L163.56 54.7022C163.42 54.9422 163.17 55.0722 162.91 55.0722C162.78 55.0722 162.65 55.0422 162.53 54.9722C162.18 54.7622 162.06 54.3022 162.27 53.9422ZM164.06 59.6122C163.91 59.8022 163.69 59.9022 163.47 59.9022C163.31 59.9022 163.14 59.8522 163.01 59.7422C162.68 59.4822 162.63 59.0122 162.89 58.6922C163.15 58.3722 163.64 58.2822 163.96 58.5422C164.29 58.8022 164.36 59.2422 164.1 59.5722L164.06 59.6122Z" fill="#201F1F"/>
</g>
<defs>
<clipPath id="clip0_1827_22957">
<rect width="324.44" height="323.33" fill="white" transform="translate(13 13.082)"/>
</clipPath>
</defs>
</svg>
