<svg width="350" height="351" viewBox="0 0 350 351" fill="none" xmlns="http://www.w3.org/2000/svg">
<g clip-path="url(#clip0_1827_22954)">
<path d="M285.466 131.921L285.467 131.921L293.64 131.319L293.91 138.454L293.914 138.847C292.012 138.866 290.074 138.888 288.107 138.911C284.958 138.947 281.736 138.984 278.474 139.008L278.47 138.739L278.993 132.39L285.466 131.921Z" fill="#1E1D1D" stroke="#1E1D1D"/>
<path d="M262.833 116.054C262.883 115.784 262.948 115.397 263.012 114.912C263.147 113.898 263.277 112.461 263.259 110.77C263.223 107.383 262.594 103.014 260.249 99.0047L262.833 116.054ZM262.833 116.054L254.665 114.957C254.697 114.77 254.733 114.538 254.766 114.27C254.859 113.518 254.932 112.474 254.85 111.303C254.686 108.97 253.9 106.068 251.352 104.032L251.352 104.032C249.801 102.792 247.372 102.273 245.18 102.804C242.951 103.343 240.951 104.973 240.34 108.014L240.34 108.014C239.682 111.304 239.972 114.167 241.061 116.796C242.145 119.415 244.008 121.769 246.447 124.066C251.705 129.023 255.243 133.394 256.956 139.274C253.282 139.409 249.231 139.594 244.906 139.822C243.553 137.902 242.15 136.18 240.765 134.529C240.414 134.111 240.064 133.698 239.717 133.288C238.682 132.065 237.668 130.866 236.692 129.625C234.093 126.324 231.793 122.765 230.257 117.882C226.328 105.389 232.75 97.5953 236.853 94.921L236.853 94.921C239.998 92.8708 244.696 91.8928 249.207 92.4471C253.712 93.0009 257.941 95.0695 260.248 99.0046L262.833 116.054Z" fill="#1E1D1D" stroke="#1E1D1D"/>
<path d="M247.767 172.488C247.653 172.499 247.551 172.507 247.463 172.512C247.101 169.392 246.842 166.785 246.719 165.051C246.714 164.96 246.707 164.871 246.701 164.787C249.168 162.893 249.98 160.057 250.17 157.668C250.313 155.862 250.106 154.264 249.956 153.417C253.233 153.335 256.578 153.245 259.926 153.155C260.083 154.285 260.744 160.47 257.285 166.028L257.285 166.029C256.654 167.047 255.878 168.047 254.936 168.989C253.094 170.831 251.12 171.714 249.609 172.137C248.853 172.348 248.214 172.445 247.767 172.488Z" fill="#1E1D1D" stroke="#1E1D1D"/>
<path d="M238.218 162.552C238.862 163.734 239.746 164.781 240.957 165.42C240.938 167.95 240.901 170.679 240.825 173.365C235.618 173.222 232.422 171.104 230.448 168.509L230.447 168.509C227.148 164.184 227.15 158.428 227.16 157.78L227.168 157.272H226.95C227.001 156.005 227.065 154.912 227.136 154.049C227.717 154.032 228.307 154.015 228.906 153.998C231.264 153.93 233.76 153.858 236.357 153.786C236.357 153.813 236.357 153.842 236.357 153.872C236.359 154.139 236.367 154.521 236.392 154.987C236.442 155.916 236.56 157.182 236.832 158.524C237.104 159.863 237.534 161.298 238.218 162.552Z" fill="#1E1D1D" stroke="#1E1D1D"/>
<path d="M140.069 93.8794L172.263 94.4231L171.484 105.075L151.816 105.622L151.379 105.634L151.333 106.069L149.343 124.779L149.286 125.315L149.824 125.332L167.717 125.885L166.676 135.979L148.679 137.093L148.246 137.12L148.212 137.552L147.652 144.505C144.26 144.523 140.503 144.541 136.464 144.56C136.473 144.301 136.486 143.927 136.504 143.449C136.54 142.464 136.594 141.037 136.667 139.273C136.814 135.745 137.036 130.866 137.338 125.465C137.931 114.841 138.832 102.221 140.069 93.8794Z" fill="#1E1D1D" stroke="#1E1D1D"/>
<path d="M213.51 171.01L211.464 173.563C211.832 168.755 212.111 164.466 212.309 161.142L212.309 161.142C212.439 158.951 212.537 157.18 212.602 155.956C212.634 155.344 212.659 154.87 212.675 154.548L212.679 154.474C212.775 154.471 212.873 154.468 212.973 154.465C213.026 154.463 213.079 154.461 213.133 154.46C213.14 154.674 213.149 154.971 213.162 155.346C213.191 156.181 213.235 157.399 213.298 158.93C213.419 161.89 213.608 166.022 213.882 170.822L213.871 170.823L213.649 170.836L213.51 171.01Z" fill="#1E1D1D" stroke="#1E1D1D"/>
<path d="M93.4201 176.372L92.8601 176.422L88.6101 176.142V156.012V155.632C90.1501 155.642 91.6601 155.652 93.1501 155.662V156.012C93.1501 156.012 92.5801 168.722 93.4201 176.372Z" fill="#1E1D1D"/>
<path d="M156.93 172.772H156.64L146.13 173.922L136.23 175.002H136.2C136.07 163.982 135.47 157.032 135.39 156.112C139.92 156.232 144.19 156.352 148.43 156.412L148.42 157.152V162.252L155.79 161.402L156.43 161.392C156.49 164.192 156.64 168.202 156.93 172.772Z" fill="#1E1D1D"/>
<path d="M211.81 161.112C211.59 164.802 211.27 169.682 210.84 175.142L210.5 175.572L201.89 176.382C201.89 170.922 202.03 165.942 202.19 162.122C204.98 161.552 208.29 161.122 211.81 161.112Z" fill="#1E1D1D"/>
<path d="M101.37 156.582L104.5 174.152L99.1001 176.102L98.5001 176.212C96.6001 165.892 94.5701 156.302 94.5701 156.302V155.662C96.9301 155.682 99.2101 155.692 101.37 155.702V156.582V156.582Z" fill="#1E1D1D"/>
<path d="M125.46 90.822L124.9 105.272L103.07 105.562L101.65 122.282L123.76 122.562V134.472H100.52V144.962V145.172C96.1899 145.172 91.8199 145.182 87.4799 145.192V144.392C87.4799 144.392 85.7799 122.002 89.1799 91.382L125.46 90.822Z" fill="#1E1D1D"/>
<path d="M216.57 94.8521L215.32 106.692H197.75L195.76 126.532L213.9 126.252L212.25 136.172L195.95 136.602L195.48 142.972L195.5 143.302C191.31 143.532 187.13 143.762 183.02 143.962L183.01 143.822C183.01 143.822 181.87 126.032 188.11 94.8521H216.57V94.8521Z" fill="#1E1D1D"/>
<path d="M202.19 162.122C202.03 165.942 201.89 170.922 201.89 176.382L201.43 176.422C197.85 177.142 195.08 177.342 192.94 177.252C187.45 177.052 186.12 175.002 186.12 175.002C184.42 167.352 183.01 155.442 183.01 155.442V155.402C186.78 155.192 190.53 154.972 194.33 154.772L194.34 154.882L193.78 164.522C193.78 164.522 197.15 163.122 202.19 162.122Z" fill="#1E1D1D"/>
<path d="M316.2 139.362C319.81 139.452 322.98 139.602 325.59 139.852C325.59 139.852 330.97 224.042 323.89 308.232C323.89 308.232 218.44 313.622 171.67 312.482C124.9 311.352 52.33 317.872 29.09 315.042C29.09 315.042 23.98 191.442 22 145.242C22 145.242 35.54 145.242 54.31 145.232C64.3 145.222 75.77 145.212 87.48 145.192C91.82 145.182 96.19 145.172 100.52 145.172C113.13 145.142 125.46 145.102 135.95 145.062C140.38 145.042 144.48 145.022 148.14 145.002C149.95 144.982 151.66 144.972 153.24 144.962C162.18 144.882 172.38 144.502 183.02 143.972V143.962C187.13 143.762 191.31 143.532 195.5 143.302C212.68 142.312 230.13 141.112 244.53 140.342C249.24 140.092 253.63 139.892 257.57 139.752C260.94 139.632 263.98 139.572 266.63 139.572C270.43 139.572 274.23 139.552 277.98 139.512C283.63 139.472 289.17 139.392 294.42 139.342C297.65 139.302 300.78 139.282 303.76 139.272C308.28 139.252 312.48 139.272 316.2 139.362Z" stroke="#1E1D1D" stroke-width="2" stroke-linecap="round" stroke-linejoin="round"/>
<path d="M285.63 151.982C302.63 151.532 315.67 151.192 315.67 151.192C315.67 151.192 318.79 237.372 314.82 297.182C314.82 297.182 221.84 300.302 208.52 300.302C195.2 300.302 149.84 299.732 124.05 301.432C98.2499 303.132 58.2799 304.552 41.8399 304.262C41.8399 304.262 38.7199 242.472 37.0199 223.192C35.3199 203.922 33.3399 175.572 33.6199 155.162C33.6199 155.162 42.2399 155.242 54.0299 155.352C58.4099 155.392 63.2299 155.432 68.1999 155.482C72.1199 155.512 76.1299 155.542 80.1099 155.572C82.9799 155.592 85.8299 155.612 88.6099 155.632C90.1499 155.642 91.6599 155.652 93.1499 155.662C93.6299 155.662 94.0999 155.662 94.5699 155.662C96.9299 155.682 99.2099 155.692 101.37 155.702C104.61 155.722 107.58 155.732 110.16 155.732C110.85 155.732 111.51 155.732 112.14 155.732C115.65 155.732 118.94 155.762 122.07 155.812C126.84 155.882 131.22 156.002 135.39 156.112C139.92 156.232 144.19 156.352 148.43 156.412C151.07 156.452 153.7 156.472 156.36 156.452C157.3 156.442 158.25 156.432 159.21 156.412C160.7 156.392 162.2 156.352 163.73 156.302C165.94 156.222 168.11 156.132 170.24 156.042C173.12 155.912 175.94 155.772 178.74 155.632C180.17 155.552 181.59 155.472 183.01 155.402C186.78 155.192 190.53 154.972 194.33 154.772C197.03 154.632 199.77 154.492 202.56 154.362C205.24 154.242 207.98 154.122 210.79 154.032C211.21 154.022 211.69 154.002 212.2 153.992C212.64 153.972 213.11 153.962 213.62 153.942C216.85 153.842 221.35 153.712 226.66 153.562C229.8 153.472 233.23 153.372 236.85 153.272C238.33 153.232 239.85 153.192 241.4 153.152C241.99 153.132 242.59 153.122 243.19 153.102C245.21 153.052 247.27 152.992 249.35 152.932C252.97 152.842 256.68 152.742 260.39 152.642C262.19 152.592 263.99 152.542 265.78 152.502C268.83 152.412 271.87 152.332 274.85 152.262C278.55 152.162 282.17 152.072 285.63 151.982Z" stroke="#1E1D1D" stroke-width="2" stroke-linecap="round" stroke-linejoin="round"/>
<path d="M54.03 155.442C54.03 155.442 55.49 188.332 68.94 225.582C71.29 232.092 74.01 238.752 77.16 245.382C79.81 250.972 82.77 256.562 86.06 262.032L97.4 258.062C97.4 258.062 97.16 257.612 96.73 256.792C94.51 252.532 87.22 238.212 81.87 224.022C80 219.052 78.36 214.092 77.27 209.592C71.89 187.412 68.2 155.732 68.2 155.732" stroke="#1E1D1D" stroke-width="2" stroke-linecap="round" stroke-linejoin="round"/>
<path d="M68.49 225.742C68.49 225.742 67.35 239.352 62.53 251.542C62.53 251.542 67.64 255.222 72.74 255.512C72.74 255.512 76.14 249.842 76.71 245.592" stroke="#1E1D1D" stroke-width="2" stroke-linecap="round" stroke-linejoin="round"/>
<path d="M80.1101 155.732C80.1101 155.732 85.1401 195.702 81.8701 224.022C81.8601 224.222 81.8301 224.412 81.8101 224.612" stroke="#1E1D1D" stroke-width="2" stroke-linecap="round" stroke-linejoin="round"/>
<path d="M93.1499 156.012C93.1499 156.012 92.5799 168.722 93.4199 176.372C93.4299 176.392 93.4299 176.402 93.4299 176.422C94.2799 184.072 96.2699 189.742 95.6999 206.472C95.1299 223.192 100.24 243.892 102.5 255.512L97.1199 256.642" stroke="#1E1D1D" stroke-width="2" stroke-linecap="round" stroke-linejoin="round"/>
<path d="M88.6101 156.012V176.142L92.8601 176.422" stroke="#1E1D1D" stroke-width="2" stroke-linecap="round" stroke-linejoin="round"/>
<path d="M101.37 156.582L104.5 174.152L99.1001 176.102" stroke="#1E1D1D" stroke-width="2" stroke-linecap="round" stroke-linejoin="round"/>
<path d="M94.5701 156.302C94.5701 156.302 96.6001 165.892 98.5001 176.212C99.3601 180.842 100.19 185.622 100.8 189.742C102.79 203.072 105.9 215.262 107.04 222.632C108.17 230.002 110.44 249.272 112.71 257.782C112.71 257.782 122.91 257.782 125.46 254.372C125.46 254.372 125.01 252.212 124.34 248.992C123.83 246.542 123.19 243.482 122.52 240.282C120.91 232.642 119.1 224.222 118.38 221.492C116.96 216.112 110.44 172.452 110.16 156.012" stroke="#1E1D1D" stroke-width="2" stroke-linecap="round" stroke-linejoin="round"/>
<path d="M122.06 156.302C122.06 156.302 125.75 216.962 122.91 240.202" stroke="#1E1D1D" stroke-width="2" stroke-linecap="round" stroke-linejoin="round"/>
<path d="M135.38 156.012C135.38 156.012 135.38 156.042 135.39 156.112C135.47 157.032 136.07 163.982 136.2 175.002C136.29 181.882 136.19 190.362 135.67 199.952C135.24 207.912 134.65 215.552 134.04 222.322C132.64 237.762 131.13 248.712 131.13 248.712C131.13 248.712 125.22 249.272 124.34 248.992H124.33" stroke="#1E1D1D" stroke-width="2" stroke-linecap="round" stroke-linejoin="round"/>
<path d="M156.36 157.152C156.36 157.152 156.36 158.742 156.43 161.392C156.49 164.192 156.64 168.202 156.93 172.772C157.01 174.052 157.11 175.362 157.21 176.712C158.06 187.482 158.91 202.502 156.36 218.092C153.81 233.682 152.39 245.022 152.39 245.022L148.71 245.592" stroke="#1E1D1D" stroke-width="2" stroke-linecap="round" stroke-linejoin="round"/>
<path d="M146.14 173.992C146.14 173.992 145.31 198.252 145.87 209.592C146.31 218.372 147.26 234.822 148.59 245.602C148.98 248.732 149.39 251.392 149.84 253.242L139.05 254.942C139.05 254.942 135.38 240.772 134.25 222.342" stroke="#1E1D1D" stroke-width="2" stroke-linecap="round" stroke-linejoin="round"/>
<path d="M136.23 175.002L146.13 173.922L156.64 172.772" stroke="#1E1D1D" stroke-width="2" stroke-linecap="round" stroke-linejoin="round"/>
<path d="M148.42 157.152V162.252L155.79 161.402" stroke="#1E1D1D" stroke-width="2" stroke-linecap="round" stroke-linejoin="round"/>
<path d="M159.2 156.302C159.2 156.302 159.2 156.342 159.21 156.412C159.32 157.772 160.42 171.042 162.03 176.422C163.73 182.092 167.98 201.932 169.12 213.842C170.25 225.742 171.38 244.172 171.1 251.262C171.1 251.262 176.2 252.112 179.04 250.692C179.04 250.692 179.1 249.162 179.17 246.722C179.31 241.562 179.5 232.302 179.32 224.612C179.04 212.712 176.77 202.322 176.2 197.402C175.35 190.032 171.38 171.892 170.25 156.302" stroke="#1E1D1D" stroke-width="2" stroke-linecap="round" stroke-linejoin="round"/>
<path d="M178.75 155.732C178.75 155.732 183.01 176.992 183.86 193.152C184.5 205.242 185.08 225.902 182.72 238.032C181.93 242.112 180.81 245.222 179.24 246.722" stroke="#1E1D1D" stroke-width="2" stroke-linecap="round" stroke-linejoin="round"/>
<path d="M182.72 237.932C182.72 237.932 182.72 237.972 182.72 238.032C182.76 239.012 182.99 246.662 182.72 249.842C182.72 249.842 184.71 249.272 187.26 250.122C189.81 250.972 191.79 250.122 191.79 250.122C191.79 250.122 191.89 249.222 192.04 247.572C192.92 238.412 195.57 206.152 192.93 177.562" stroke="#1E1D1D" stroke-width="2" stroke-linecap="round" stroke-linejoin="round"/>
<path d="M202.57 154.602C202.57 154.602 202.37 157.512 202.19 162.122C202.03 165.942 201.89 170.922 201.89 176.382C201.88 179.132 201.92 182.022 202 184.932C202.3 195.272 203.13 211.372 203.86 224.432C204.53 236.432 205.12 245.872 205.12 245.872C205.12 245.872 198.31 249.562 192.08 247.572" stroke="#1E1D1D" stroke-width="2" stroke-linecap="round" stroke-linejoin="round"/>
<path d="M212.2 154.032C212.2 154.032 212.07 156.732 211.81 161.112C211.59 164.802 211.27 169.682 210.84 175.142C209.55 191.972 207.27 214.352 203.86 224.432C203.81 224.592 203.75 224.742 203.7 224.892" stroke="#1E1D1D" stroke-width="2" stroke-linecap="round" stroke-linejoin="round"/>
<path d="M213.62 154.042C213.62 154.042 213.83 161.272 214.41 171.292C215.18 184.482 216.59 202.532 219.01 215.262C222.87 235.592 226.09 243.892 226.09 243.892C226.09 243.892 233.18 241.342 236.86 241.342C236.86 241.342 236.79 241.152 236.66 240.802C235.77 238.362 232.08 228.192 230.34 221.492C229.11 216.732 228.29 209.532 227.71 202.792C227.23 197.332 226.92 192.182 226.66 188.892C226.18 182.672 226.1 166.562 226.43 157.772C226.49 156.142 226.57 154.762 226.66 153.742" stroke="#1E1D1D" stroke-width="2" stroke-linecap="round" stroke-linejoin="round"/>
<path d="M230.06 168.652C230.06 168.652 230.06 168.712 230.05 168.812C229.95 170.962 228.88 194.142 227.79 202.782" stroke="#1E1D1D" stroke-width="2" stroke-linecap="round" stroke-linejoin="round"/>
<path d="M241.4 153.282C241.4 153.282 241.5 158.502 241.46 165.082C241.44 167.862 241.4 170.902 241.31 173.872C241.26 175.512 241.2 177.132 241.12 178.692C240.55 189.742 239.7 207.892 239.7 216.672C239.7 225.462 240.27 237.082 241.97 240.772H237.15" stroke="#1E1D1D" stroke-width="2" stroke-linecap="round" stroke-linejoin="round"/>
<path d="M243.2 153.292C243.2 153.292 245.54 156.432 246.18 164.522C246.19 164.702 246.21 164.892 246.22 165.082C246.35 166.912 246.63 169.702 247.02 173.032C248.48 185.142 251.47 204.432 253.87 211.292C254.69 213.652 255.54 215.822 256.42 217.842C259.35 224.562 262.57 229.562 266.19 233.862C266.7 234.482 267.23 235.082 267.76 235.672C267.76 235.672 273.71 235.672 277.4 232.552C277.4 232.552 270.68 224.402 267.77 217.782C267.25 216.592 266.85 215.452 266.63 214.412C265.21 207.602 263.38 202.552 261.81 198.532C259.41 192.382 258.51 176.412 257.71 166.292C257.66 165.682 257.61 165.092 257.56 164.522" stroke="#1E1D1D" stroke-width="2" stroke-linecap="round" stroke-linejoin="round"/>
<path d="M265.78 152.612C265.78 152.612 266.63 167.922 266.91 174.152C267.12 178.652 267.76 192.302 267.9 204.772C267.94 209.462 267.92 213.982 267.77 217.782C267.77 217.892 267.76 217.992 267.76 218.092" stroke="#1E1D1D" stroke-width="2" stroke-linecap="round" stroke-linejoin="round"/>
<path d="M256.42 217.812C256.42 217.812 256.42 217.822 256.42 217.842C256.42 218.482 256.47 229.042 258.12 234.822C258.12 234.822 262.38 235.672 266.06 233.972" stroke="#1E1D1D" stroke-width="2" stroke-linecap="round" stroke-linejoin="round"/>
<path d="M268.05 204.772C268.05 204.772 270.99 218.702 277.91 232.292C278.24 232.942 278.58 233.602 278.93 234.252C278.93 234.252 282.79 232.262 287.6 231.982C287.6 231.982 288.74 231.132 287.6 228.862C286.79 227.242 283.5 221.822 280.45 209.042C279.25 204.012 278.08 197.842 277.12 190.312C273.71 163.672 274.85 152.342 274.85 152.342" stroke="#1E1D1D" stroke-width="2" stroke-linecap="round" stroke-linejoin="round"/>
<path d="M285.62 151.762C285.62 151.762 285.62 151.842 285.63 151.982C285.69 154.462 286.33 177.212 289.02 191.452C292.99 212.422 300.64 225.462 300.64 225.462L291.86 230.562C291.86 230.562 282.79 216.112 280.52 209.022" stroke="#1E1D1D" stroke-width="2" stroke-linecap="round" stroke-linejoin="round"/>
<path d="M54.3101 144.962C54.3101 144.962 54.6001 104.992 58.0001 81.4621C61.4001 57.9321 60.5501 40.0721 60.5501 40.0721C60.5501 40.0721 84.6401 39.5121 100.23 37.5221C115.83 35.5421 157.78 34.4321 181.59 34.1221C225.24 33.5621 285.34 38.6621 285.34 38.6621C285.34 38.6621 283.07 74.3721 283.35 89.1121C283.73 108.692 285.34 130.222 285.34 130.222" stroke="#1E1D1D" stroke-width="2" stroke-linecap="round" stroke-linejoin="round"/>
<path d="M277.97 138.722L278.53 131.922L285.43 131.422L294.12 130.782L294.41 138.442" stroke="#1E1D1D" stroke-width="2" stroke-linecap="round" stroke-linejoin="round"/>
<path d="M303.76 138.442L304.61 130.222L315.38 131.352L316.23 138.442" stroke="#1E1D1D" stroke-width="2" stroke-linecap="round" stroke-linejoin="round"/>
<path d="M87.4799 144.392C87.4799 144.392 85.7799 122.002 89.1799 91.382L125.46 90.822L124.9 105.272L103.07 105.562L101.65 122.282L123.76 122.562V134.472H100.52V144.962" stroke="#1E1D1D" stroke-width="2" stroke-linecap="round" stroke-linejoin="round"/>
<path d="M135.95 144.962C135.95 144.962 137.09 110.092 139.64 93.3721L172.8 93.9321L171.95 105.562L151.83 106.122L149.84 124.832L168.27 125.402L167.13 136.452L148.71 137.592L148.14 144.672" stroke="#1E1D1D" stroke-width="2" stroke-linecap="round" stroke-linejoin="round"/>
<path d="M183.01 143.822C183.01 143.822 181.87 126.032 188.11 94.8521H216.57L215.32 106.692H197.75L195.76 126.532L213.9 126.252L212.25 136.172L195.95 136.602L195.48 142.972" stroke="#1E1D1D" stroke-width="2" stroke-linecap="round" stroke-linejoin="round"/>
<path d="M257.56 139.572C255.86 133.342 252.2 128.802 246.79 123.702C241.97 119.162 239.55 114.512 240.83 108.112C241.97 102.442 248.2 102.152 251.04 104.422C255.83 108.252 254.07 115.382 254.07 115.382L263.23 116.612C263.23 116.612 265.49 106.972 260.68 98.7521C255.86 90.5321 243.1 90.2521 236.58 94.5021C232.33 97.2721 225.77 105.282 229.78 118.032C232.9 127.952 239.13 132.482 244.52 140.142" stroke="#1E1D1D" stroke-width="2" stroke-linecap="round" stroke-linejoin="round"/>
<path d="M183.01 155.442C183.01 155.442 184.42 167.352 186.12 175.002C186.12 175.002 187.45 177.052 192.94 177.252C195.08 177.342 197.85 177.142 201.43 176.422L201.89 176.382L210.5 175.572L210.84 175.142L213.9 171.322" stroke="#1E1D1D" stroke-width="2" stroke-linecap="round" stroke-linejoin="round"/>
<path d="M194.34 154.882L193.78 164.522C193.78 164.522 197.15 163.122 202.19 162.122C204.98 161.552 208.29 161.122 211.81 161.112C211.85 161.112 211.88 161.112 211.92 161.112" stroke="#1E1D1D" stroke-width="2" stroke-linecap="round" stroke-linejoin="round"/>
<path d="M236.86 153.462C236.86 153.462 236.58 162.822 241.4 165.082" stroke="#1E1D1D" stroke-width="2" stroke-linecap="round" stroke-linejoin="round"/>
<path d="M249.34 152.892C249.34 152.892 249.34 152.902 249.35 152.932C249.49 153.542 251.11 160.982 246.22 164.522" stroke="#1E1D1D" stroke-width="2" stroke-linecap="round" stroke-linejoin="round"/>
<path d="M226.66 157.712C226.66 157.712 226.66 157.732 226.66 157.772C226.65 158.432 226.64 164.342 230.05 168.812C232.18 171.612 235.66 173.852 241.31 173.872C241.34 173.872 241.37 173.872 241.4 173.872" stroke="#1E1D1D" stroke-width="2" stroke-linecap="round" stroke-linejoin="round"/>
<path d="M260.39 152.892C260.39 152.892 260.39 152.912 260.4 152.942C260.5 153.582 261.45 160.282 257.71 166.292C257.06 167.342 256.26 168.372 255.29 169.342C251.46 173.172 247.07 173.022 247.07 173.022" stroke="#1E1D1D" stroke-width="2" stroke-linecap="round" stroke-linejoin="round"/>
</g>
<defs>
<clipPath id="clip0_1827_22954">
<rect width="307.55" height="283.68" fill="white" transform="translate(21 33.082)"/>
</clipPath>
</defs>
</svg>
