<svg width="350" height="350" viewBox="0 0 350 350" fill="none" xmlns="http://www.w3.org/2000/svg">
<g clip-path="url(#clip0_908_10214)">
<path d="M233.44 202.61C233.44 202.61 236.81 202.75 238.57 206.44C238.57 206.44 237.15 220.98 236.44 235.86C236.44 235.86 230.78 241.96 214.9 240.82C198.29 239.63 191.66 228.92 191.66 228.92C191.66 228.92 193.36 217.01 193.5 207.66C193.5 207.66 193.13 204.05 196.53 204.05L197.11 204.03C197.15 204.98 197.17 205.95 197.18 206.95C197.18 206.95 198.74 210.35 213.06 209.64C227.37 208.93 232.9 206.24 232.9 206.24C232.9 206.24 233.04 204.91 233.14 202.6L233.44 202.61ZM231.42 225.23C231.42 223.36 229.9 221.84 228.02 221.84C226.15 221.84 224.63 223.36 224.63 225.23C224.63 227.11 226.15 228.62 228.02 228.62C229.9 228.62 231.42 227.11 231.42 225.23Z" fill="#201F1F"/>
<path d="M235.45 242.1C230.92 285.47 219.86 335.92 219.86 335.92C206.83 339.39 191.74 334.42 180.71 329.18C181.73 325.83 185.37 312.19 183.07 295.5H183.06C182.58 291.99 181.83 288.34 180.74 284.62H180.68C188.43 259.06 190.67 235.06 190.67 235.06C190.67 235.06 193.78 241.81 210.79 244.93C227.8 248.05 235.45 242.1 235.45 242.1Z" fill="#201F1F"/>
<path d="M228.02 228.62C229.9 228.62 231.42 227.11 231.42 225.23C231.42 223.36 229.9 221.84 228.02 221.84C226.15 221.84 224.63 223.36 224.63 225.23C224.63 227.11 226.15 228.62 228.02 228.62Z" stroke="#201F1F" stroke-width="2" stroke-linecap="round" stroke-linejoin="round"/>
<path d="M196.53 204.05C193.13 204.05 193.5 207.66 193.5 207.66C193.36 217.01 191.66 228.92 191.66 228.92C191.66 228.92 198.29 239.63 214.9 240.82C230.78 241.96 236.44 235.86 236.44 235.86C237.15 220.98 238.57 206.44 238.57 206.44C236.81 202.75 233.44 202.61 233.44 202.61" stroke="#201F1F" stroke-width="2" stroke-linecap="round" stroke-linejoin="round"/>
<path d="M195.93 98.38H195.84L173.56 97.83C173.13 97.82 172.71 97.78 172.3 97.71C167.42 96.98 163.7 92.71 163.76 87.66L163.86 78.82L163.98 68.19L164.1 57.99L164.35 35.59L164.5 22.84C164.56 17.36 169.05 12.95 174.53 13L207.67 13.26C213.15 13.31 217.4 17.78 217.16 23.25L214.81 77.26L214.35 90.91C214.26 94.36 212.08 97.24 209.36 97.49L207.72 97.38" stroke="#201F1F" stroke-width="2" stroke-linecap="round" stroke-linejoin="round"/>
<path d="M164.3 35.59C164.3 35.59 158.77 29.5 154.52 29.36C150.27 29.22 152.11 36.59 155.23 41.83C158.35 47.07 161.75 54.3 164.02 57.99" stroke="#201F1F" stroke-width="2" stroke-linecap="round" stroke-linejoin="round"/>
<path d="M163.88 68.19C163.88 68.19 157.5 64.36 154.24 68.47C151.84 71.5 147.6 79.79 145.59 86.9C144.85 89.48 144.41 91.89 144.46 93.85C144.54 97.28 145.8 98.83 147.59 98.73C148.89 98.67 150.49 97.71 152.11 95.97C155.94 91.86 162.32 83.92 163.74 78.82" stroke="#201F1F" stroke-width="2" stroke-linecap="round" stroke-linejoin="round"/>
<path d="M145.59 86.9C145.59 86.9 148.43 86.76 150.41 88.32C152.4 89.88 149.99 97.11 147.58 98.38" stroke="#201F1F" stroke-width="2" stroke-linecap="round" stroke-linejoin="round"/>
<path d="M155.23 74.57L156.65 75.28" stroke="#201F1F" stroke-width="2" stroke-linecap="round" stroke-linejoin="round"/>
<path d="M156.22 71.17C156.22 71.17 158.07 71.17 159.63 72.59" stroke="#201F1F" stroke-width="2" stroke-linecap="round" stroke-linejoin="round"/>
<path d="M172.24 114.13C172.24 114.13 177.06 110.02 182.02 107.89" stroke="#201F1F" stroke-width="2" stroke-linecap="round" stroke-linejoin="round"/>
<path d="M186.84 105.61L192.93 102.77" stroke="#201F1F" stroke-width="2" stroke-linecap="round" stroke-linejoin="round"/>
<path d="M207.11 107.31L210.31 106.02" stroke="#201F1F" stroke-width="2" stroke-linecap="round" stroke-linejoin="round"/>
<path d="M208.521 111.7L212.211 110.14" stroke="#201F1F" stroke-width="2" stroke-linecap="round" stroke-linejoin="round"/>
<path d="M177.06 110.14C177.06 110.13 177.05 110.12 177.04 110.11C176.52 109.45 168.19 98.89 161.47 97.11C154.52 95.26 151.69 101.07 150.98 109.72C150.71 112.94 150.26 116.49 150.14 119.64C149.94 124.7 150.62 128.76 154.37 128.86C154.55 128.87 154.75 128.86 154.95 128.85C158.7 128.59 160.1 121.01 161.02 115.5C161.08 115.17 161.13 114.85 161.18 114.54C161.89 110.29 162.32 107.88 163.17 104.62" stroke="#201F1F" stroke-width="2" stroke-linecap="round" stroke-linejoin="round"/>
<path d="M172.24 98.1C172.24 98.1 175.06 105.99 177.04 110.11" stroke="#201F1F" stroke-width="2" stroke-linecap="round" stroke-linejoin="round"/>
<path d="M150.13 119.64C150.31 119.51 152.2 118.25 154.1 118.79C156.08 119.36 155.66 125.45 154.38 128.71" stroke="#201F1F" stroke-width="2" stroke-linecap="round" stroke-linejoin="round"/>
<path d="M161.18 115.53C161.18 115.53 166 118.65 169.69 130.27C173.37 141.89 174.72 146.06 178.62 155.07C182.78 164.68 189.1 172.3 193.63 177.58C196.05 180.4 197.95 182.56 198.74 183.99" stroke="#201F1F" stroke-width="2" stroke-linecap="round" stroke-linejoin="round"/>
<path d="M193.5 177.69C193.5 177.69 196.57 185.69 197.11 204.03C197.15 204.98 197.17 205.95 197.18 206.95C197.18 206.95 198.74 210.35 213.06 209.64C227.37 208.93 232.9 206.24 232.9 206.24C232.9 206.24 233.04 204.91 233.14 202.6C233.31 198.76 233.36 192.19 232.48 184.41C231.09 172.2 230.35 161.74 229.36 153.51C228.37 145.29 225.67 135.37 223.83 121.77C221.99 108.16 215.89 85.62 214.9 77.26" stroke="#201F1F" stroke-width="2" stroke-linecap="round" stroke-linejoin="round"/>
<path d="M201.29 173.64C201.29 173.64 195.06 161.19 194.35 147.85C193.36 129.28 199.59 126.59 198.46 114.4C197.77 106.96 196.44 102.32 195.84 98.38C195.45 95.87 195.36 93.64 195.91 91.15C196.23 89.69 196.71 88.67 197.28 87.99C199.18 85.69 202.08 87.36 203.28 89.88C203.31 89.95 203.35 90.03 203.39 90.11C204.08 91.52 205.55 94.28 207.22 97.53C209.8 102.57 212.84 108.77 214.19 112.98C216.46 120.07 220.57 132.4 222.41 142.6C223.21 147.03 224.26 156.92 224.26 156.92" stroke="#201F1F" stroke-width="2" stroke-linecap="round" stroke-linejoin="round"/>
<path d="M197.33 88.03C197.33 88.03 198.78 96.37 202 95.4C204.52 94.65 203.63 90.94 203.39 90.11C203.36 90 203.34 89.94 203.34 89.94" stroke="#201F1F" stroke-width="2" stroke-linecap="round" stroke-linejoin="round"/>
<path d="M187.32 98.38L190.1 103.77L187.91 98.38" stroke="#201F1F" stroke-width="2" stroke-linecap="round" stroke-linejoin="round"/>
<path d="M198.35 44.37C195.66 44.42 193.02 45.79 191.47 48.24C190.66 49.52 190.23 50.93 190.16 52.34C190.07 52.35 189.99 52.35 189.9 52.35C189.36 50.48 188.16 48.79 186.37 47.65C186 47.41 185.63 47.22 185.25 47.04C184.19 46.58 183.05 46.35 181.94 46.34C181.29 44.1 181.56 41.6 182.91 39.48C185.4 35.58 190.57 34.42 194.47 36.91C197.1 38.58 198.48 41.47 198.35 44.37Z" stroke="#201F1F" stroke-width="2" stroke-linecap="round" stroke-linejoin="round"/>
<path d="M205.6 57.24C204.2 59.45 201.93 60.77 199.52 61.06C198.98 59.14 197.76 57.4 195.94 56.25C194.25 55.17 192.32 54.78 190.47 55H190.46C190.22 54.14 190.12 53.24 190.16 52.34C190.23 50.93 190.66 49.52 191.47 48.24C193.02 45.79 195.66 44.42 198.35 44.37C199.95 44.33 201.58 44.75 203.03 45.67C206.93 48.16 208.08 53.33 205.6 57.24Z" stroke="#201F1F" stroke-width="2" stroke-linecap="round" stroke-linejoin="round"/>
<path d="M198.51 67.81C196.03 71.71 190.85 72.86 186.95 70.38C184.35 68.72 182.97 65.87 183.08 62.99C183.92 62.87 184.75 62.62 185.52 62.24C186.87 61.59 188.07 60.57 188.94 59.2C188.96 59.17 188.98 59.14 189 59.11C189.79 57.83 190.19 56.43 190.24 55.03C190.31 55.02 190.39 55.01 190.46 55H190.47C192.32 54.78 194.25 55.17 195.94 56.25C197.76 57.4 198.98 59.14 199.52 61.06C200.13 63.27 199.84 65.72 198.51 67.81Z" stroke="#201F1F" stroke-width="2" stroke-linecap="round" stroke-linejoin="round"/>
<path d="M190.24 55.03C190.19 56.43 189.79 57.83 189 59.11C188.98 59.14 188.96 59.17 188.94 59.2C188.07 60.57 186.87 61.59 185.52 62.24C184.75 62.62 183.92 62.87 183.08 62.99C181.16 63.28 179.14 62.9 177.38 61.78C173.48 59.29 172.34 54.12 174.82 50.22C176.43 47.69 179.16 46.32 181.94 46.34C183.05 46.35 184.19 46.58 185.25 47.04C185.63 47.22 186 47.41 186.37 47.65C188.16 48.79 189.36 50.48 189.9 52.35C189.95 52.5 189.99 52.65 190.03 52.8C190.2 53.53 190.27 54.28 190.24 55.03Z" stroke="#201F1F" stroke-width="2" stroke-linecap="round" stroke-linejoin="round"/>
<path d="M116.92 163.47C116.61 164.94 116.7 166.41 117.14 167.75C117.06 167.79 116.98 167.82 116.89 167.86C115.73 166.29 114 165.13 111.94 164.69C111.51 164.6 111.09 164.54 110.67 164.52C109.52 164.45 108.39 164.63 107.35 165.01C105.93 163.15 105.32 160.71 105.84 158.25C106.8 153.72 111.25 150.83 115.77 151.79C118.82 152.43 121.13 154.67 122.01 157.44C119.5 158.44 117.53 160.63 116.92 163.47Z" stroke="#201F1F" stroke-width="2" stroke-linecap="round" stroke-linejoin="round"/>
<path d="M133.301 166.94C132.751 169.5 131.091 171.54 128.931 172.65C127.761 171.04 126.011 169.85 123.911 169.4C121.961 168.99 120.021 169.29 118.371 170.15C117.831 169.43 117.411 168.61 117.141 167.75C116.701 166.41 116.611 164.94 116.921 163.47C117.531 160.63 119.501 158.44 122.011 157.44C123.491 156.83 125.171 156.65 126.851 157.01C131.381 157.97 134.271 162.42 133.301 166.94Z" stroke="#201F1F" stroke-width="2" stroke-linecap="round" stroke-linejoin="round"/>
<path d="M130.37 179.33C129.41 183.85 124.96 186.74 120.43 185.78C117.42 185.14 115.13 182.95 114.23 180.22C114.97 179.8 115.65 179.28 116.24 178.66C117.29 177.58 118.05 176.2 118.39 174.61C118.39 174.58 118.4 174.54 118.41 174.51C118.7 173.04 118.59 171.59 118.14 170.26C118.21 170.22 118.29 170.18 118.37 170.15C120.02 169.29 121.96 168.99 123.91 169.4C126.01 169.85 127.76 171.04 128.93 172.65C130.29 174.5 130.88 176.9 130.37 179.33Z" stroke="#201F1F" stroke-width="2" stroke-linecap="round" stroke-linejoin="round"/>
<path d="M118.41 174.51C118.4 174.54 118.39 174.58 118.39 174.61C118.05 176.2 117.29 177.58 116.24 178.66C115.65 179.28 114.97 179.8 114.23 180.22C112.53 181.15 110.5 181.5 108.46 181.07C103.93 180.11 101.06 175.66 102.02 171.14C102.65 168.2 104.73 165.96 107.35 165.01C108.39 164.63 109.52 164.45 110.67 164.52C111.09 164.54 111.51 164.6 111.94 164.69C114 165.13 115.73 166.29 116.89 167.86C116.99 167.98 117.08 168.11 117.17 168.24C117.58 168.86 117.91 169.54 118.14 170.26C118.59 171.59 118.7 173.04 118.41 174.51Z" stroke="#201F1F" stroke-width="2" stroke-linecap="round" stroke-linejoin="round"/>
<path d="M144.1 290.61C139.24 290.02 137.62 288.89 137.08 288.23C136.83 287.94 136.81 287.74 136.81 287.74C136.27 285.2 142.63 284.56 143.39 284.49C144.07 287.86 144.18 290 144.18 290L144.1 290.61Z" fill="#201F1F"/>
<path d="M143.47 284.48C143.47 284.48 143.44 284.48 143.39 284.49C142.63 284.56 136.27 285.2 136.81 287.74C136.81 287.74 136.83 287.94 137.08 288.23C137.62 288.89 139.24 290.02 144.1 290.61C144.89 290.71 145.76 290.79 146.73 290.85C159.3 291.66 173.8 288.61 179.66 285.13C179.95 284.96 180.22 284.79 180.46 284.62" stroke="#201F1F" stroke-width="2" stroke-linecap="round" stroke-linejoin="round"/>
<path d="M137.23 300.49C137.23 300.49 144.18 304.47 156.51 303.33C176.35 301.48 182.87 295.53 182.87 295.53" stroke="#201F1F" stroke-width="2" stroke-linecap="round" stroke-linejoin="round"/>
<path d="M179.61 285.04C179.61 285.04 179.63 284.7 179.64 284.03C179.73 280.07 179.72 264.56 175.36 239.83C170.26 210.92 159.94 193.92 154.38 180.02C150.07 169.25 141.03 152.68 139.81 151.33C138.28 149.63 135.92 150.33 135.92 150.33" stroke="#201F1F" stroke-width="2" stroke-linecap="round" stroke-linejoin="round"/>
<path d="M144.18 290C144.18 290 144.07 287.86 143.39 284.49C142.97 282.39 142.33 279.8 141.34 276.96C138.79 269.59 136.52 266.19 132.55 261.94C128.59 257.69 124.05 250.32 119.52 233.31C114.98 216.3 109.59 210.92 103.36 205.53C97.1201 200.14 89.4701 193.62 87.4801 191.92C85.5001 190.22 83.8001 188.24 85.2201 187.39C86.6301 186.54 91.1701 186.82 106.19 197.59" stroke="#201F1F" stroke-width="2" stroke-linecap="round" stroke-linejoin="round"/>
<path d="M93.5801 173.64C93.5801 173.64 86.9201 170.24 85.22 170.95C83.52 171.66 83.8 173.22 85.36 175.06C86.92 176.9 98.02 185.21 101.99 189.04" stroke="#201F1F" stroke-width="2" stroke-linecap="round" stroke-linejoin="round"/>
<path d="M128.59 207.09L122.07 210.63C118.47 212.59 113.16 209.7 110.21 204.17L106.59 197.38L102.11 188.98L93.8498 173.5L85.7298 158.28C82.7898 152.75 84.7598 145.67 90.1398 142.47L112.3 129.27C117.68 126.07 124.27 128.03 127.02 133.65L135.31 150.63L151.36 183.47C153.55 187.94 151.82 193.56 147.51 196.03L137.37 201.85" stroke="#201F1F" stroke-width="2" stroke-linecap="round" stroke-linejoin="round"/>
<path d="M140.21 200.29L140.78 201.42" stroke="#201F1F" stroke-width="2" stroke-linecap="round" stroke-linejoin="round"/>
<path d="M144.891 197.88C144.891 197.88 146.871 200.99 147.721 200.43C148.211 200.1 147.861 197.45 147.581 196.03" stroke="#201F1F" stroke-width="2" stroke-linecap="round" stroke-linejoin="round"/>
<path d="M156.65 232.32C156.65 232.32 151.83 224.66 148 218.57C144.18 212.47 142.9 210.35 140.07 207.23C138.92 205.96 137.44 204 135.87 202.07C135.02 201.04 134.15 200.02 133.29 199.13C131.81 197.61 130.37 196.48 129.15 196.32C127.71 196.13 127.04 197.13 126.91 198.63C126.74 200.52 127.41 203.19 128.44 205.25C128.67 205.71 128.95 206.32 129.27 207.06C131.49 212.2 135.52 223.26 136.95 229.2C140.21 242.81 145.17 254.71 158.35 261.94" stroke="#201F1F" stroke-width="2" stroke-linecap="round" stroke-linejoin="round"/>
<path d="M127.03 198.64C127.03 198.64 128.73 203.26 131.42 203.4C133.12 203.49 134.26 201.99 133.12 199.29" stroke="#201F1F" stroke-width="2" stroke-linecap="round" stroke-linejoin="round"/>
<path d="M138.561 215.68L144.121 213.13" stroke="#201F1F" stroke-width="2" stroke-linecap="round" stroke-linejoin="round"/>
<path d="M141.34 219.99L146.24 217.12" stroke="#201F1F" stroke-width="2" stroke-linecap="round" stroke-linejoin="round"/>
<path d="M133.97 327.14C133.97 327.14 136.42 313.67 136.99 300.48C137.16 296.29 137.15 292.13 136.81 288.44" stroke="#201F1F" stroke-width="2" stroke-linecap="round" stroke-linejoin="round"/>
<path d="M180.741 284.62C181.831 288.34 182.581 291.99 183.061 295.5H183.071C185.731 314.77 180.521 329.27 180.521 329.27" stroke="#201F1F" stroke-width="2" stroke-linecap="round" stroke-linejoin="round"/>
<path d="M249.8 274.27C247.63 272.73 246.93 271.79 246.93 271.79C246.93 271.79 247.01 270.94 247.15 269.66C247.15 269.66 247.65 272.26 249.8 274.27Z" fill="white"/>
<path d="M295.18 114.7C292 112.61 287.76 112.6 284.6 114.98C280.55 118.03 279.8 123.86 282.92 128C283.99 129.43 285.39 130.47 286.93 131.1C289.83 132.28 293.24 131.97 295.89 129.97C297.39 128.85 298.43 127.34 299 125.68C299.37 124.59 299.54 123.43 299.48 122.27C299.41 120.42 298.79 118.56 297.58 116.95C296.89 116.04 296.08 115.29 295.18 114.7Z" stroke="#201F1F" stroke-width="2" stroke-linecap="round" stroke-linejoin="round"/>
<path d="M305.39 133.41C305.16 131.84 304.45 130.41 303.48 129.07C302.32 127.45 300.77 126.32 299.05 125.7" stroke="#201F1F" stroke-width="2" stroke-linecap="round" stroke-linejoin="round"/>
<path d="M311.33 121.2C313.65 118.06 313.77 113.68 311.35 110.44C308.38 106.49 302.75 105.74 298.76 108.76C296.8 110.25 295.6 112.37 295.24 114.62" stroke="#201F1F" stroke-width="2" stroke-linecap="round" stroke-linejoin="round"/>
<path d="M303.98 140.05C306.5 140.36 309.18 139.71 311.4 138.03C315.88 134.65 316.85 128.39 313.58 124.03C312.74 122.92 311.72 122.05 310.57 121.41C307.22 119.55 302.88 119.75 299.55 122.27" stroke="#201F1F" stroke-width="2" stroke-linecap="round" stroke-linejoin="round"/>
<path d="M286.84 131.34C285.72 134.34 286.1 137.82 288.15 140.56C291.35 144.82 297.39 145.66 301.64 142.44C302.56 141.75 303.32 140.92 303.91 140.01C305.19 138.05 305.71 135.7 305.41 133.41C305.4 133.3 305.39 133.2 305.37 133.1" stroke="#201F1F" stroke-width="2" stroke-linecap="round" stroke-linejoin="round"/>
<path d="M279.671 162.44L272.161 159.33C268.011 157.6 266.091 151.34 267.861 145.33L283.271 93.1C285.041 87.09 291.301 83.79 297.261 85.73L321.051 93.46C327.001 95.39 330.151 101.75 328.081 107.66L327.731 108.65L308.591 163.3C307.491 166.43 303.931 168.65 300.641 168.26L292.141 167.26" stroke="#201F1F" stroke-width="2" stroke-linecap="round" stroke-linejoin="round"/>
<path d="M327.86 107.74C327.86 107.74 327.82 108.06 327.73 108.65C327.08 113.31 323.98 135.19 320.21 157.06" stroke="#201F1F" stroke-width="2" stroke-linecap="round" stroke-linejoin="round"/>
<path d="M252.49 254.95C252.49 254.95 255.17 228.91 256.21 216.97C257.56 201.56 259.26 195.61 268.05 182C273.08 174.22 276.93 167.64 279.82 162.53C282.8 157.26 284.76 153.54 285.91 151.67C288.18 147.99 289.74 145.72 291.15 146.85C291.15 146.85 295.97 148.55 293.85 158.9C293.23 161.9 292.42 164.65 291.58 167.24C289.73 172.93 287.76 177.87 287.47 183.14C287.04 190.79 288.04 197.57 285.91 206.1C284.92 210.07 279.96 216.59 279.96 216.59" stroke="#201F1F" stroke-width="2" stroke-linecap="round" stroke-linejoin="round"/>
<path d="M291.01 147.14C291.01 147.14 291.29 151.67 289.59 154.08C287.89 156.49 286.05 155.22 284.63 154.08" stroke="#201F1F" stroke-width="2" stroke-linecap="round" stroke-linejoin="round"/>
<path d="M278.11 166.27L282.22 169.1" stroke="#201F1F" stroke-width="2" stroke-linecap="round" stroke-linejoin="round"/>
<path d="M275.99 170.52L278.26 171.8" stroke="#201F1F" stroke-width="2" stroke-linecap="round" stroke-linejoin="round"/>
<path d="M313.26 168.96L313.97 170.24" stroke="#201F1F" stroke-width="2" stroke-linecap="round" stroke-linejoin="round"/>
<path d="M315.25 166.13L317.66 169.81" stroke="#201F1F" stroke-width="2" stroke-linecap="round" stroke-linejoin="round"/>
<path d="M327.21 155.84L328.29 157.06" stroke="#201F1F" stroke-width="2" stroke-linecap="round" stroke-linejoin="round"/>
<path d="M326.3 174.92L328.29 177.61" stroke="#201F1F" stroke-width="2" stroke-linecap="round" stroke-linejoin="round"/>
<path d="M324.03 178.03L324.6 178.88" stroke="#201F1F" stroke-width="2" stroke-linecap="round" stroke-linejoin="round"/>
<path d="M282.65 264.92C282.65 264.92 282.68 264.52 282.74 263.84C282.96 261.06 283.67 253.62 284.92 249.75C286.48 244.93 287.04 240.93 294.56 232.99C302.07 225.06 313.55 211.77 323.33 197.88C332.88 184.31 336.79 179.31 336.37 173.64C335.94 167.97 331.97 169.53 329.28 170.52C328.69 170.74 327.66 171.26 326.4 171.99V172C321.96 174.55 314.69 179.6 313.75 182.43" stroke="#201F1F" stroke-width="2" stroke-linecap="round" stroke-linejoin="round"/>
<path d="M331.12 180.16C331.12 180.16 326.73 183.99 322.33 185.69C319.44 186.81 318.93 188.24 315.67 188.38" stroke="#201F1F" stroke-width="2" stroke-linecap="round" stroke-linejoin="round"/>
<path d="M317.23 180.73C318.93 179.93 320.75 182.09 320.43 183.45C319.98 185.43 318.65 186.4 316.52 187.81C314.4 189.23 312.67 189.49 311.59 188.01C311.59 188.01 310.29 185.97 312.27 184.13C314.26 182.29 316.3 181.16 317.23 180.73Z" stroke="#201F1F" stroke-width="2" stroke-linecap="round" stroke-linejoin="round"/>
<path d="M326.301 171.83C326.301 171.83 329.481 167 331.261 163.4C331.701 162.5 332.061 161.68 332.261 161.03C333.251 157.77 331.971 153.51 328.141 153.23C325.611 153.04 323.051 154.54 320.271 157.13C318.851 158.45 317.371 160.06 315.811 161.88C312.191 166.09 307.341 170.4 304.351 173.65C304.041 173.99 303.751 174.32 303.481 174.63C302.051 176.32 298.101 180.3 301.221 183.14C301.361 183.27 301.521 183.39 301.671 183.48C304.891 185.43 310.621 180.01 314.411 176.97C323.401 169.77 329.191 167.14 331.221 163.38C331.281 163.26 331.341 163.13 331.401 163.01" stroke="#201F1F" stroke-width="2" stroke-linecap="round" stroke-linejoin="round"/>
<path d="M301.78 183.28C301.78 183.28 304.14 183.27 307.28 179.28C309.38 176.62 306.03 173.61 304.5 173.78" stroke="#201F1F" stroke-width="2" stroke-linecap="round" stroke-linejoin="round"/>
<path d="M245.061 312.74L249.631 274.7" stroke="#201F1F" stroke-width="2" stroke-linecap="round" stroke-linejoin="round"/>
<path d="M280.81 283.48L278.82 320.33" stroke="#201F1F" stroke-width="2" stroke-linecap="round" stroke-linejoin="round"/>
<path d="M285.09 277.54C285.14 274 285.2 268.12 285.2 265.91C285.2 262.65 283.07 262.08 283.07 262.08C283 262.78 282.9 263.36 282.74 263.84C282.23 265.4 281.08 265.99 278.23 266.28C277.42 266.37 276.47 266.43 275.35 266.48C273.82 266.55 272.14 266.36 270.4 265.99C267.49 265.38 264.43 264.26 261.71 262.99C259.44 261.94 257.39 260.79 255.86 259.74C253.76 258.31 252.85 256.48 252.48 254.95C252.06 253.23 252.32 251.88 252.32 251.88C251.48 252.15 250.78 252.94 250.21 253.86C249.49 255.04 248.98 256.45 248.7 257.33C248.54 257.85 248.29 259.63 248.02 261.78C247.7 264.41 247.36 267.6 247.15 269.66C247.01 270.94 246.93 271.79 246.93 271.79C246.93 271.79 247.63 272.73 249.8 274.27C251.42 275.43 253.88 276.91 257.5 278.59C258.88 279.23 260.43 279.89 262.17 280.58C263.22 280.99 264.27 281.37 265.3 281.7C268.22 282.65 271.03 283.27 273.64 283.48C275.14 283.6 276.58 283.59 277.92 283.43C279.17 283.28 280.34 283.01 281.42 282.61C282.79 282.09 284.02 281.35 285.06 280.37C285.06 280.37 285.08 279.22 285.09 277.54Z" stroke="#201F1F" stroke-width="2" stroke-linecap="round" stroke-linejoin="round"/>
<path d="M248.21 261.8C248.21 261.8 251.26 271.93 257.56 278.45" stroke="#201F1F" stroke-width="2" stroke-linecap="round" stroke-linejoin="round"/>
<path d="M251.04 254.07C251.04 254.07 252.18 263 265.36 281.5" stroke="#201F1F" stroke-width="2" stroke-linecap="round" stroke-linejoin="round"/>
<path d="M261.67 263.07C261.67 263.07 264.51 273.85 273.65 283.41" stroke="#201F1F" stroke-width="2" stroke-linecap="round" stroke-linejoin="round"/>
<path d="M270.32 266.19C270.32 266.19 272.52 273.55 281.42 282.61C281.43 282.62 281.43 282.62 281.44 282.63" stroke="#201F1F" stroke-width="2" stroke-linecap="round" stroke-linejoin="round"/>
<path d="M278.26 266.55C278.26 266.55 279.89 271.22 284.49 277.53" stroke="#201F1F" stroke-width="2" stroke-linecap="round" stroke-linejoin="round"/>
<path d="M282.79 264.63C282.79 264.63 283.64 266.19 284.77 267.11" stroke="#201F1F" stroke-width="2" stroke-linecap="round" stroke-linejoin="round"/>
<path d="M247.15 269.66C247.15 269.66 247.65 272.26 249.8 274.27C249.92 274.4 250.05 274.52 250.19 274.63" stroke="#201F1F" stroke-width="2" stroke-linecap="round" stroke-linejoin="round"/>
<path d="M68.78 327.7C68.78 327.7 68.23 326.77 67.23 324.94C66.43 323.51 65.36 321.54 64.05 319.02C63.03 317.07 61.86 314.8 60.57 312.21C59.68 310.43 58.73 308.51 57.73 306.43C56.83 304.57 55.88 302.59 54.9 300.48C53.83 298.22 52.72 295.81 51.57 293.27C50.87 291.72 50.15 290.11 49.41 288.46C48.2 285.72 46.94 282.83 45.65 279.81C44.76 277.7 43.84 275.53 42.91 273.29C41.99 271.07 41.05 268.78 40.11 266.43C39.26 264.34 38.4 262.19 37.54 260C36.62 257.65 35.69 255.25 34.75 252.79C33.91 250.6 33.06 248.36 32.21 246.07C32.21 246.07 33.13 244.31 35.01 242.01C37.9 238.46 43.07 233.61 50.63 231.89C59.24 229.94 67.98 230.41 72.57 230.9C74.63 231.11 75.86 231.33 75.86 231.33C75.86 231.33 77.23 234.02 79.5 238.43C80.4 240.18 81.43 242.19 82.58 244.42C83.47 246.16 84.43 248.02 85.44 249.99C86.29 251.63 87.17 253.34 88.08 255.11C89.14 257.17 90.24 259.3 91.37 261.47C92.79 264.21 94.24 267.02 95.72 269.86C97.01 272.36 98.33 274.89 99.64 277.39C100.79 279.61 101.94 281.81 103.07 283.97C104.11 285.95 105.13 287.9 106.13 289.79C107.29 292.01 108.42 294.15 109.51 296.18C110.59 298.23 111.62 300.16 112.59 301.96C113.84 304.29 114.98 306.39 115.97 308.2C116.54 309.23 117.06 310.16 117.53 310.98" stroke="#201F1F" stroke-width="2" stroke-linecap="round" stroke-linejoin="round"/>
<path d="M67.3604 324.87C67.3604 324.87 85.5004 313.81 115.55 308.43" stroke="#201F1F" stroke-width="2" stroke-linecap="round" stroke-linejoin="round"/>
<path d="M112.151 302.19C112.151 302.19 98.8005 302.63 83.3705 308.71C69.3405 314.24 64.5205 318.77 64.5205 318.77" stroke="#201F1F" stroke-width="2" stroke-linecap="round" stroke-linejoin="round"/>
<path d="M61.4102 311.79C61.4102 311.79 66.3302 307.36 80.4802 302.14C96.0402 296.4 109.38 296.25 109.38 296.25" stroke="#201F1F" stroke-width="2" stroke-linecap="round" stroke-linejoin="round"/>
<path d="M58.29 306.16C58.29 306.16 60.18 301.02 75.72 295.81C91.44 290.55 105.07 289.87 105.07 289.87" stroke="#201F1F" stroke-width="2" stroke-linecap="round" stroke-linejoin="round"/>
<path d="M55.1699 300.35C55.1699 300.35 58.2899 296.24 62.8199 293.69C67.3599 291.14 77.1399 287.17 81.9599 286.03C86.7699 284.9 98.2599 283.91 102.65 284.19" stroke="#201F1F" stroke-width="2" stroke-linecap="round" stroke-linejoin="round"/>
<path d="M51.9102 293.12C51.9102 293.12 56.1602 288.73 64.2402 285.04C72.3202 281.36 77.9902 278.95 83.2302 277.67C88.4802 276.4 96.5502 277.53 99.1102 277.67" stroke="#201F1F" stroke-width="2" stroke-linecap="round" stroke-linejoin="round"/>
<path d="M49.7803 288.3C49.7803 288.3 53.1903 281.78 59.0003 279.23C64.8103 276.68 70.6203 273.7 74.1603 272.85C77.7003 272 84.5203 270.17 88.6203 269.74C92.5903 269.31 95.4203 270.02 95.4203 270.02" stroke="#201F1F" stroke-width="2" stroke-linecap="round" stroke-linejoin="round"/>
<path d="M45.6699 279.8C45.6699 279.8 50.7699 274.7 56.0199 272.43C61.2599 270.16 74.5899 265.2 78.9799 263.92C83.3699 262.65 90.7399 261.51 90.7399 261.51" stroke="#201F1F" stroke-width="2" stroke-linecap="round" stroke-linejoin="round"/>
<path d="M43.2598 273.14C43.2598 273.14 44.9598 269.74 47.7998 268.03C50.6298 266.33 58.8498 261.8 64.9498 260.24C71.0398 258.68 85.0698 255.56 87.4798 255.42" stroke="#201F1F" stroke-width="2" stroke-linecap="round" stroke-linejoin="round"/>
<path d="M40.71 266.19C40.71 266.19 44.68 261.66 51.77 258.11C58.85 254.57 71.61 251.59 75.3 250.6C78.98 249.61 85.07 250.18 85.07 250.18" stroke="#201F1F" stroke-width="2" stroke-linecap="round" stroke-linejoin="round"/>
<path d="M38.0205 259.81C38.0205 259.81 43.1205 254.85 47.2305 252.44C51.3405 250.03 61.4105 245.36 63.9605 244.65C66.5105 243.94 76.1505 243.23 81.8105 243.94" stroke="#201F1F" stroke-width="2" stroke-linecap="round" stroke-linejoin="round"/>
<path d="M34.9004 252.73C34.9004 252.73 42.2604 244.88 48.3704 242.52C54.6004 240.11 61.5504 237.7 65.0904 237.42C68.6304 237.14 73.3104 237.14 79.2604 238.55" stroke="#201F1F" stroke-width="2" stroke-linecap="round" stroke-linejoin="round"/>
<path d="M34.7602 241.81C34.7602 241.81 22.8502 215.45 19.1702 183.42C15.4802 151.39 15.7702 120.63 16.3302 106.6C16.9902 90.43 18.6002 75.14 24.5502 78.82" stroke="#201F1F" stroke-width="2" stroke-linecap="round" stroke-linejoin="round"/>
<path d="M46.6598 130.41L43.6298 130.05L29.0298 128.3C24.3698 127.75 20.9398 123.5 21.3798 118.83L25.1198 78.87L26.3698 65.46C26.7998 60.79 30.9398 57.43 35.6098 57.96L65.7098 61.41C70.3798 61.95 73.7798 66.17 73.3198 70.84L70.4498 99.64L67.6598 127.61C67.6398 127.81 67.5998 128.01 67.5398 128.2C67.1198 129.56 65.8098 130.57 64.3598 130.53L58.4898 130.41" stroke="#201F1F" stroke-width="2" stroke-linecap="round" stroke-linejoin="round"/>
<path d="M31.9802 128.71L31.7002 135.22V135.23" stroke="#201F1F" stroke-width="2" stroke-linecap="round" stroke-linejoin="round"/>
<path d="M36.2903 135.85C36.2903 135.85 34.0903 135.5 31.7003 135.22C30.1103 135.02 28.4303 134.85 27.2803 134.83" stroke="#201F1F" stroke-width="2" stroke-linecap="round" stroke-linejoin="round"/>
<path d="M43.5998 130.3L43.2598 135.68" stroke="#201F1F" stroke-width="2" stroke-linecap="round" stroke-linejoin="round"/>
<path d="M41.1104 135.97L43.2304 136.12L45.1104 136.25" stroke="#201F1F" stroke-width="2" stroke-linecap="round" stroke-linejoin="round"/>
<path d="M29.5205 176.48C29.5205 176.48 33.3405 166.41 36.1805 159.18C39.0105 151.96 43.2805 142.93 44.4105 139.53C44.7005 138.66 45.0505 137.57 45.4405 136.36C46.3105 133.69 47.3505 130.46 48.2605 127.91C48.5405 127.11 48.8205 126.37 49.0705 125.74C50.3605 122.52 52.9305 120.62 54.7905 121C55.0805 121.06 55.3505 121.17 55.5905 121.34C56.9605 122.29 58.2505 124.71 58.1905 130.41C58.1705 132.39 57.9805 134.78 57.5805 137.64C56.0205 148.7 54.8905 149.26 54.0405 161.31C53.1805 173.36 53.1805 175.63 50.4905 185.26C47.9705 194.29 45.3905 200.57 41.0005 205.39" stroke="#201F1F" stroke-width="2" stroke-linecap="round" stroke-linejoin="round"/>
<path d="M43.8301 146.85L47.0301 148.66" stroke="#201F1F" stroke-width="2" stroke-linecap="round" stroke-linejoin="round"/>
<path d="M45.8105 141.89C45.8105 141.89 48.5105 142.88 50.0705 146" stroke="#201F1F" stroke-width="2" stroke-linecap="round" stroke-linejoin="round"/>
<path d="M48.5098 128C48.5098 128 50.3498 130.41 52.0498 130.27C53.7498 130.13 55.8798 124.18 54.7398 121.2" stroke="#201F1F" stroke-width="2" stroke-linecap="round" stroke-linejoin="round"/>
<path d="M70.6202 99.66C70.6202 99.66 75.1502 90.59 77.7002 90.02C80.2602 89.45 80.9602 92.29 80.2602 95.4C79.5502 98.52 77.0002 107.88 74.0202 116.52C72.7202 120.3 71.2302 124.62 69.9402 128.93C68.3002 134.48 67.0102 139.99 66.9302 144.3C66.7902 151.96 67.5002 155.92 68.3502 163.01C69.2002 170.1 70.1902 177.18 65.9402 190.37C62.1102 202.24 60.9202 205.52 64.5202 214.32C68.0702 222.96 72.6002 230.62 72.6002 230.62" stroke="#201F1F" stroke-width="2" stroke-linecap="round" stroke-linejoin="round"/>
<path d="M56.0602 85.8001C53.3702 85.5901 50.6302 86.69 48.8302 88.97C47.9002 90.15 47.3402 91.5201 47.1302 92.9101C47.0402 92.9101 46.9502 92.9 46.8602 92.88C46.5102 90.96 45.4802 89.1701 43.8302 87.8701C43.4802 87.6001 43.1302 87.3601 42.7702 87.1501C41.7602 86.5801 40.6602 86.2401 39.5502 86.1201C39.1202 83.8301 39.6402 81.37 41.2002 79.39C44.0602 75.75 49.3202 75.13 52.9602 77.99C55.4002 79.91 56.4902 82.9201 56.0602 85.8001Z" stroke="#201F1F" stroke-width="2" stroke-linecap="round" stroke-linejoin="round"/>
<path d="M62.0006 99.32C60.3806 101.38 57.9906 102.47 55.5606 102.52C55.2206 100.56 54.1806 98.71 52.4906 97.38C50.9106 96.14 49.0306 95.55 47.1706 95.59C47.0106 94.71 47.0006 93.8 47.1306 92.91C47.3406 91.52 47.9006 90.15 48.8306 88.97C50.6306 86.69 53.3706 85.59 56.0606 85.8C57.6606 85.92 59.2406 86.49 60.6006 87.56C64.2306 90.42 64.8606 95.69 62.0006 99.32Z" stroke="#201F1F" stroke-width="2" stroke-linecap="round" stroke-linejoin="round"/>
<path d="M53.8998 109.14C51.0398 112.77 45.7698 113.4 42.1398 110.54C39.7098 108.63 38.6198 105.65 39.0298 102.8C39.8798 102.77 40.7198 102.59 41.5198 102.3C42.9398 101.79 44.2298 100.89 45.2298 99.62C45.2498 99.59 45.2698 99.56 45.2898 99.54C46.1998 98.35 46.7498 96.99 46.9298 95.6C47.0098 95.6 47.0898 95.59 47.1698 95.59C49.0298 95.55 50.9098 96.14 52.4898 97.38C54.1798 98.71 55.2198 100.56 55.5598 102.52C55.9598 104.78 55.4298 107.19 53.8998 109.14Z" stroke="#201F1F" stroke-width="2" stroke-linecap="round" stroke-linejoin="round"/>
<path d="M46.9301 95.6C46.7501 96.99 46.2001 98.35 45.2901 99.54C45.2701 99.56 45.2501 99.59 45.2301 99.62C44.2301 100.89 42.9401 101.79 41.5201 102.3C40.7201 102.59 39.8801 102.77 39.0301 102.8C37.1001 102.9 35.1201 102.32 33.4701 101.03C29.8401 98.17 29.2201 92.91 32.0801 89.27C33.9301 86.92 36.7801 85.83 39.5501 86.12C40.6601 86.24 41.7601 86.58 42.7701 87.15C43.1301 87.36 43.4801 87.6 43.8301 87.87C45.4801 89.17 46.5101 90.96 46.8601 92.88C46.9001 93.04 46.9301 93.2 46.9501 93.36C47.0501 94.1 47.0501 94.85 46.9301 95.6Z" stroke="#201F1F" stroke-width="2" stroke-linecap="round" stroke-linejoin="round"/>
<path d="M112.59 301.96C112.75 302.1 114.44 305.39 115.97 308.2C88.3298 311.79 67.2498 324.58 67.2498 324.58L64.0498 319.02C64.0498 319.02 92.2398 300.39 112.59 301.96Z" fill="#201F1F"/>
<path d="M106.13 289.79C107.72 292.8 107.98 293.37 109.51 296.18C80.8505 298.01 60.6605 311.89 60.6605 311.89L57.7305 306.43C57.7305 306.43 69.9205 293.12 106.13 289.79Z" fill="#201F1F"/>
<path d="M99.3102 277.68C100.9 280.69 101.16 281.26 102.69 284.07C80.5202 280.73 53.8402 299.78 53.8402 299.78L50.9102 294.32C50.9102 294.32 73.7802 274.03 99.3102 277.68Z" fill="#201F1F"/>
<path d="M92.7298 264.01C94.3198 267.02 94.5798 267.59 96.1098 270.4C62.1098 269.6 49.4098 288.46 49.4098 288.46L45.5498 280.61C45.5498 280.61 48.8098 270.65 90.7398 261.51C92.0198 261.23 91.4098 263.82 92.7298 264.01Z" fill="#201F1F"/>
<path d="M85.6104 250.4C87.1604 253.35 87.4104 253.9 88.9004 256.65C87.6104 254.23 72.0404 258.98 69.0604 259.33C47.0404 261.93 43.4504 274.31 43.4504 274.31L39.6904 266.63C39.6904 266.63 45.8804 255.41 83.8304 249.41C85.0804 249.23 84.3204 250.22 85.6104 250.4Z" fill="#201F1F"/>
<path d="M80.5198 239.35C82.0698 242.3 81.0898 241.66 82.5798 244.42C81.2898 242 67.0698 244.38 64.1298 245C48.3198 248.35 38.5198 259.98 38.5198 259.98L34.7598 252.3C34.7598 252.3 50.8998 233.84 79.4998 238.42C80.7598 238.63 79.2298 239.17 80.5198 239.35Z" fill="#201F1F"/>
</g>
<defs>
<clipPath id="clip0_908_10214">
<rect width="322.4" height="325.08" fill="white" transform="translate(15 12)"/>
</clipPath>
</defs>
</svg>
